<mxfile host="app.diagrams.net" agent="Mozilla/5.0 (Windows NT 10.0; Win64; x64) AppleWebKit/537.36 (KHTML, like Gecko) Chrome/136.0.0.0 YaBrowser/25.6.0.0 Safari/537.36" version="27.1.6" pages="3">
  <diagram name="CDL" id="SCpngaXEFyfujAyh4T14">
    <mxGraphModel dx="1782" dy="299" grid="1" gridSize="10" guides="1" tooltips="1" connect="1" arrows="1" fold="1" page="1" pageScale="1" pageWidth="1169" pageHeight="827" math="0" shadow="0">
      <root>
        <mxCell id="0" />
        <mxCell id="1" parent="0" />
        <mxCell id="kM7gbS75rneJ0L8MpAQb-289" value="Физическая модель Core Data Layer" style="rounded=1;whiteSpace=wrap;html=1;fillColor=none;fontSize=18;labelPosition=center;verticalLabelPosition=middle;align=center;verticalAlign=top;strokeWidth=7;strokeColor=#0066CC;" parent="1" vertex="1">
          <mxGeometry x="1420" y="1682" width="680" height="770" as="geometry" />
        </mxCell>
        <UserObject label="Техническая спецификация" link="https://docs.google.com/spreadsheets/d/1u_H4tV3w7XBNvifpU3XYxFWc21JCQUopbFD96ZJ7sTA/edit?usp=sharing" linkTarget="_blank" id="HAt1-OOx40huhED6gCsE-3">
          <mxCell style="text;html=1;strokeColor=none;fillColor=none;whiteSpace=wrap;align=center;verticalAlign=middle;fontColor=#0000EE;fontStyle=5;fontSize=23;" parent="1" vertex="1">
            <mxGeometry x="1500" y="1600" width="540" height="40" as="geometry" />
          </mxCell>
        </UserObject>
        <mxCell id="kBX3_UH6zR9s8uffy2pD-2" value="Логическая модель данных Core Data Layer" style="rounded=1;whiteSpace=wrap;html=1;glass=0;fillColor=none;verticalAlign=top;fontSize=18;strokeColor=#0066CC;strokeWidth=7;" parent="1" vertex="1">
          <mxGeometry x="1209" y="900" width="1090" height="674.5" as="geometry" />
        </mxCell>
        <mxCell id="kM7gbS75rneJ0L8MpAQb-7" value="" style="fontSize=12;html=1;endArrow=ERzeroToMany;endFill=1;rounded=0;startArrow=ERmandOne;startFill=0;edgeStyle=elbowEdgeStyle;" parent="1" source="kM7gbS75rneJ0L8MpAQb-41" target="kM7gbS75rneJ0L8MpAQb-39" edge="1">
          <mxGeometry width="100" height="100" relative="1" as="geometry">
            <mxPoint x="1620" y="1380" as="sourcePoint" />
            <mxPoint x="1715" y="1335" as="targetPoint" />
          </mxGeometry>
        </mxCell>
        <mxCell id="kM7gbS75rneJ0L8MpAQb-11" value="" style="fontSize=12;html=1;endArrow=ERzeroToMany;endFill=0;rounded=0;startArrow=ERmandOne;startFill=0;edgeStyle=elbowEdgeStyle;elbow=vertical;" parent="1" source="kM7gbS75rneJ0L8MpAQb-33" target="kM7gbS75rneJ0L8MpAQb-31" edge="1">
          <mxGeometry width="100" height="100" relative="1" as="geometry">
            <mxPoint x="1490" y="1027.0588235294117" as="sourcePoint" />
            <mxPoint x="1600" y="1027.5" as="targetPoint" />
          </mxGeometry>
        </mxCell>
        <mxCell id="kM7gbS75rneJ0L8MpAQb-14" value="" style="fontSize=12;html=1;endArrow=ERzeroToMany;endFill=1;rounded=0;edgeStyle=elbowEdgeStyle;startArrow=ERone;startFill=0;dashed=1;dashPattern=8 8;" parent="1" source="kM7gbS75rneJ0L8MpAQb-37" target="kM7gbS75rneJ0L8MpAQb-43" edge="1">
          <mxGeometry width="100" height="100" relative="1" as="geometry">
            <mxPoint x="1830" y="1300" as="sourcePoint" />
            <mxPoint x="2020" y="1260" as="targetPoint" />
          </mxGeometry>
        </mxCell>
        <mxCell id="kM7gbS75rneJ0L8MpAQb-15" value="" style="edgeStyle=elbowEdgeStyle;fontSize=12;html=1;endArrow=ERone;endFill=0;rounded=0;startArrow=ERzeroToMany;startFill=0;dashed=1;dashPattern=8 8;" parent="1" source="kM7gbS75rneJ0L8MpAQb-43" target="kM7gbS75rneJ0L8MpAQb-32" edge="1">
          <mxGeometry width="100" height="100" relative="1" as="geometry">
            <mxPoint x="1480" y="1260" as="sourcePoint" />
            <mxPoint x="1830" y="1080" as="targetPoint" />
            <Array as="points">
              <mxPoint x="1830" y="1240" />
            </Array>
          </mxGeometry>
        </mxCell>
        <mxCell id="kM7gbS75rneJ0L8MpAQb-17" value="" style="edgeStyle=elbowEdgeStyle;fontSize=12;html=1;endArrow=ERone;endFill=0;rounded=0;startArrow=ERone;startFill=0;elbow=vertical;" parent="1" source="kM7gbS75rneJ0L8MpAQb-39" target="kM7gbS75rneJ0L8MpAQb-37" edge="1">
          <mxGeometry width="100" height="100" relative="1" as="geometry">
            <mxPoint x="1450" y="1320" as="sourcePoint" />
            <mxPoint x="1600" y="1267.5" as="targetPoint" />
          </mxGeometry>
        </mxCell>
        <mxCell id="kM7gbS75rneJ0L8MpAQb-19" value="" style="edgeStyle=elbowEdgeStyle;fontSize=12;html=1;endArrow=ERzeroToOne;endFill=0;rounded=0;startArrow=ERzeroToMany;startFill=0;elbow=vertical;" parent="1" source="kM7gbS75rneJ0L8MpAQb-31" target="kM7gbS75rneJ0L8MpAQb-35" edge="1">
          <mxGeometry width="100" height="100" relative="1" as="geometry">
            <mxPoint x="1830" y="1027.5" as="sourcePoint" />
            <mxPoint x="1910" y="1027.5" as="targetPoint" />
          </mxGeometry>
        </mxCell>
        <mxCell id="kM7gbS75rneJ0L8MpAQb-31" value="Курс" style="swimlane;childLayout=stackLayout;horizontal=1;startSize=50;horizontalStack=0;rounded=1;fontSize=14;fontStyle=0;strokeWidth=2;resizeParent=0;resizeLast=1;shadow=0;dashed=0;align=center;arcSize=4;whiteSpace=wrap;html=1;strokeColor=#00CC66;verticalAlign=middle;fontFamily=Helvetica;fontColor=default;fillColor=default;" parent="1" vertex="1">
          <mxGeometry x="1635" y="960" width="220" height="140" as="geometry" />
        </mxCell>
        <mxCell id="kM7gbS75rneJ0L8MpAQb-32" value="&lt;u&gt;Код курса&lt;span style=&quot;white-space: pre;&quot;&gt;&#x9;&lt;/span&gt;&lt;span style=&quot;white-space: pre;&quot;&gt;&#x9;&lt;/span&gt;&lt;span style=&quot;white-space: pre;&quot;&gt;&#x9;&lt;/span&gt;int&lt;/u&gt;&lt;div&gt;Наименование курса&lt;span style=&quot;white-space: pre;&quot;&gt;&#x9;&lt;/span&gt;string&lt;br&gt;Код направления&lt;span style=&quot;white-space: pre;&quot;&gt;&#x9;&lt;/span&gt;&lt;span style=&quot;white-space: pre;&quot;&gt;&#x9;&lt;/span&gt;int&lt;br&gt;Стоимость&lt;span style=&quot;white-space: pre;&quot;&gt;&#x9;&lt;/span&gt;&lt;span style=&quot;white-space: pre;&quot;&gt;&#x9;&lt;/span&gt;&lt;span style=&quot;white-space: pre;&quot;&gt;&#x9;&lt;/span&gt;numeric&lt;/div&gt;&lt;div&gt;Код преподавателя&lt;span style=&quot;white-space: pre;&quot;&gt;&#x9;&lt;/span&gt;int&lt;/div&gt;" style="align=left;strokeColor=#00CC66;fillColor=default;spacingLeft=4;spacingRight=4;fontSize=14;verticalAlign=middle;resizable=0;rotatable=0;part=1;html=1;whiteSpace=wrap;rounded=1;shadow=0;dashed=0;strokeWidth=2;arcSize=4;fontFamily=Helvetica;fontColor=default;fontStyle=0;horizontal=1;" parent="kM7gbS75rneJ0L8MpAQb-31" vertex="1">
          <mxGeometry y="50" width="220" height="90" as="geometry" />
        </mxCell>
        <mxCell id="kM7gbS75rneJ0L8MpAQb-33" value="Преподаватели" style="swimlane;childLayout=stackLayout;horizontal=1;startSize=50;horizontalStack=0;rounded=1;fontSize=14;fontStyle=0;strokeWidth=2;resizeParent=0;resizeLast=1;shadow=0;dashed=0;align=center;arcSize=4;whiteSpace=wrap;html=1;strokeColor=#00CC66;verticalAlign=middle;fontFamily=Helvetica;fontColor=default;fillColor=default;" parent="1" vertex="1">
          <mxGeometry x="1240" y="960" width="215" height="100" as="geometry" />
        </mxCell>
        <mxCell id="kM7gbS75rneJ0L8MpAQb-34" value="&lt;u&gt;Код преподавателя&lt;/u&gt;&lt;span style=&quot;white-space: pre;&quot;&gt;&#x9;&lt;/span&gt;int&lt;br&gt;ФИО&lt;span style=&quot;white-space: pre;&quot;&gt;&#x9;&lt;span style=&quot;white-space: pre;&quot;&gt;&#x9;&lt;/span&gt;&lt;span style=&quot;white-space: pre;&quot;&gt;&#x9;&lt;/span&gt;&lt;span style=&quot;white-space: pre;&quot;&gt;&#x9;&lt;/span&gt;&lt;/span&gt;string" style="align=left;strokeColor=#00CC66;fillColor=default;spacingLeft=4;spacingRight=4;fontSize=14;verticalAlign=middle;resizable=0;rotatable=0;part=1;html=1;whiteSpace=wrap;rounded=1;shadow=0;dashed=0;strokeWidth=2;arcSize=4;fontFamily=Helvetica;fontColor=default;fontStyle=0;horizontal=1;" parent="kM7gbS75rneJ0L8MpAQb-33" vertex="1">
          <mxGeometry y="50" width="215" height="50" as="geometry" />
        </mxCell>
        <mxCell id="kM7gbS75rneJ0L8MpAQb-35" value="Направление" style="swimlane;childLayout=stackLayout;horizontal=1;startSize=50;horizontalStack=0;rounded=1;fontSize=14;fontStyle=0;strokeWidth=2;resizeParent=0;resizeLast=1;shadow=0;dashed=0;align=center;arcSize=4;whiteSpace=wrap;html=1;strokeColor=#00CC66;verticalAlign=middle;fontFamily=Helvetica;fontColor=default;fillColor=default;" parent="1" vertex="1">
          <mxGeometry x="1935" y="960" width="275" height="110" as="geometry" />
        </mxCell>
        <mxCell id="kM7gbS75rneJ0L8MpAQb-36" value="&lt;u&gt;Код направления&lt;/u&gt;&lt;span style=&quot;white-space: pre;&quot;&gt;&#x9;&lt;span style=&quot;white-space: pre;&quot;&gt;&#x9;&lt;/span&gt;&lt;span style=&quot;white-space: pre;&quot;&gt;&#x9;&lt;/span&gt;&lt;span style=&quot;white-space: pre;&quot;&gt;&#x9;&lt;/span&gt;&lt;/span&gt;int&lt;div&gt;Наименование направления&lt;span style=&quot;white-space: pre;&quot;&gt;&#x9;&lt;/span&gt;string&lt;/div&gt;&lt;div&gt;Описание направления&lt;span style=&quot;white-space: pre;&quot;&gt;&#x9;&lt;span style=&quot;white-space: pre;&quot;&gt;&#x9;&lt;/span&gt;&lt;span style=&quot;white-space: pre;&quot;&gt;&#x9;&lt;/span&gt;&lt;/span&gt;string&lt;/div&gt;" style="align=left;strokeColor=#00CC66;fillColor=default;spacingLeft=4;spacingRight=4;fontSize=14;verticalAlign=middle;resizable=0;rotatable=0;part=1;html=1;whiteSpace=wrap;rounded=1;shadow=0;dashed=0;strokeWidth=2;arcSize=4;fontFamily=Helvetica;fontColor=default;fontStyle=0;horizontal=1;" parent="kM7gbS75rneJ0L8MpAQb-35" vertex="1">
          <mxGeometry y="50" width="275" height="60" as="geometry" />
        </mxCell>
        <mxCell id="kM7gbS75rneJ0L8MpAQb-37" value="Услуга" style="swimlane;childLayout=stackLayout;horizontal=1;startSize=50;horizontalStack=0;rounded=1;fontSize=14;fontStyle=0;strokeWidth=2;resizeParent=0;resizeLast=1;shadow=0;dashed=0;align=center;arcSize=4;whiteSpace=wrap;html=1;strokeColor=#00CC66;verticalAlign=middle;fontFamily=Helvetica;fontColor=default;fillColor=default;" parent="1" vertex="1">
          <mxGeometry x="1635" y="1199" width="145" height="111" as="geometry" />
        </mxCell>
        <mxCell id="kM7gbS75rneJ0L8MpAQb-38" value="&lt;u&gt;ID услуги&lt;span style=&quot;white-space: pre;&quot;&gt;&#x9;&lt;span style=&quot;white-space: pre;&quot;&gt;&#x9;&lt;/span&gt;&lt;/span&gt;&lt;/u&gt;int&lt;br&gt;Код услуги&lt;span style=&quot;white-space: pre;&quot;&gt;&#x9;&lt;/span&gt;string&lt;br&gt;Код оплаты&lt;span style=&quot;white-space: pre;&quot;&gt;&#x9;&lt;/span&gt;int" style="align=left;strokeColor=#00CC66;fillColor=default;spacingLeft=4;spacingRight=4;fontSize=14;verticalAlign=middle;resizable=0;rotatable=0;part=1;html=1;whiteSpace=wrap;rounded=1;shadow=0;dashed=0;strokeWidth=2;arcSize=4;fontFamily=Helvetica;fontColor=default;fontStyle=0;horizontal=1;" parent="kM7gbS75rneJ0L8MpAQb-37" vertex="1">
          <mxGeometry y="50" width="145" height="61" as="geometry" />
        </mxCell>
        <mxCell id="kM7gbS75rneJ0L8MpAQb-39" value="Оплата" style="swimlane;childLayout=stackLayout;horizontal=1;startSize=50;horizontalStack=0;rounded=1;fontSize=14;fontStyle=0;strokeWidth=2;resizeParent=0;resizeLast=1;shadow=0;dashed=0;align=center;arcSize=4;whiteSpace=wrap;html=1;strokeColor=#00CC66;verticalAlign=middle;fontFamily=Helvetica;fontColor=default;fillColor=default;" parent="1" vertex="1">
          <mxGeometry x="1240" y="1199" width="290" height="131" as="geometry" />
        </mxCell>
        <mxCell id="kM7gbS75rneJ0L8MpAQb-40" value="&lt;u&gt;Код оплаты&lt;/u&gt;&lt;span style=&quot;white-space: pre;&quot;&gt;&#x9;&lt;span style=&quot;white-space: pre;&quot;&gt;&#x9;&lt;/span&gt;&lt;span style=&quot;white-space: pre;&quot;&gt;&#x9;&lt;/span&gt;&lt;span style=&quot;white-space: pre;&quot;&gt;&#x9;&lt;/span&gt;&lt;span style=&quot;white-space: pre;&quot;&gt;&#x9;&lt;/span&gt;&lt;/span&gt;int&lt;br&gt;Дата и время создания оплаты&lt;span style=&quot;white-space: pre;&quot;&gt;&#x9;&lt;/span&gt;datetime&lt;br&gt;Код студента&lt;span style=&quot;white-space: pre;&quot;&gt;&#x9;&lt;span style=&quot;white-space: pre;&quot;&gt;&#x9;&lt;/span&gt;&lt;span style=&quot;white-space: pre;&quot;&gt;&#x9;&lt;/span&gt;&lt;span style=&quot;white-space: pre;&quot;&gt;&#x9;&lt;/span&gt;&lt;span style=&quot;white-space: pre;&quot;&gt;&#x9;&lt;/span&gt;&lt;/span&gt;int&lt;div&gt;Сумма оплаты&lt;span style=&quot;white-space: pre;&quot;&gt;&#x9;&lt;span style=&quot;white-space: pre;&quot;&gt;&#x9;&lt;/span&gt;&lt;span style=&quot;white-space: pre;&quot;&gt;&#x9;&lt;/span&gt;&lt;span style=&quot;white-space: pre;&quot;&gt;&#x9;&lt;/span&gt;&lt;/span&gt;numeric&lt;/div&gt;" style="align=left;strokeColor=#00CC66;fillColor=default;spacingLeft=4;spacingRight=4;fontSize=14;verticalAlign=middle;resizable=0;rotatable=0;part=1;html=1;whiteSpace=wrap;rounded=1;shadow=0;dashed=0;strokeWidth=2;arcSize=4;fontFamily=Helvetica;fontColor=default;fontStyle=0;horizontal=1;" parent="kM7gbS75rneJ0L8MpAQb-39" vertex="1">
          <mxGeometry y="50" width="290" height="81" as="geometry" />
        </mxCell>
        <mxCell id="kM7gbS75rneJ0L8MpAQb-41" value="Студенты" style="swimlane;childLayout=stackLayout;horizontal=1;startSize=50;horizontalStack=0;rounded=1;fontSize=14;fontStyle=0;strokeWidth=2;resizeParent=0;resizeLast=1;shadow=0;dashed=0;align=center;arcSize=4;whiteSpace=wrap;html=1;strokeColor=#00CC66;verticalAlign=middle;fontFamily=Helvetica;fontColor=default;fillColor=default;" parent="1" vertex="1">
          <mxGeometry x="1240" y="1398" width="260" height="142" as="geometry" />
        </mxCell>
        <mxCell id="kM7gbS75rneJ0L8MpAQb-42" value="&lt;u&gt;Код студента&lt;/u&gt;&lt;span style=&quot;white-space: pre;&quot;&gt;&#x9;&lt;span style=&quot;white-space: pre;&quot;&gt;&#x9;&lt;/span&gt;&lt;span style=&quot;white-space: pre;&quot;&gt;&#x9;&lt;/span&gt;&lt;span style=&quot;white-space: pre;&quot;&gt;&#x9;&lt;/span&gt;&lt;/span&gt;int&lt;div&gt;Дата и время регистрации&lt;span style=&quot;white-space: pre;&quot;&gt;&#x9;&lt;/span&gt;datetime&lt;br&gt;ФИО&lt;span style=&quot;white-space: pre;&quot;&gt;&#x9;&lt;span style=&quot;white-space: pre;&quot;&gt;&#x9;&lt;/span&gt;&lt;span style=&quot;white-space: pre;&quot;&gt;&#x9;&lt;/span&gt;&lt;span style=&quot;white-space: pre;&quot;&gt;&#x9;&lt;/span&gt;&lt;span style=&quot;white-space: pre;&quot;&gt;&#x9;&lt;/span&gt;&lt;/span&gt;string&lt;br&gt;Телефон&lt;span style=&quot;white-space: pre;&quot;&gt;&#x9;&lt;span style=&quot;white-space: pre;&quot;&gt;&#x9;&lt;/span&gt;&lt;span style=&quot;white-space: pre;&quot;&gt;&#x9;&lt;/span&gt;&lt;span style=&quot;white-space: pre;&quot;&gt;&#x9;&lt;/span&gt;&lt;span style=&quot;white-space: pre;&quot;&gt;&#x9;&lt;/span&gt;&lt;/span&gt;string&lt;div&gt;Email&lt;span style=&quot;white-space: pre;&quot;&gt;&#x9;&lt;span style=&quot;white-space: pre;&quot;&gt;&#x9;&lt;/span&gt;&lt;span style=&quot;white-space: pre;&quot;&gt;&#x9;&lt;/span&gt;&lt;span style=&quot;white-space: pre;&quot;&gt;&#x9;&lt;/span&gt;&lt;span style=&quot;white-space: pre;&quot;&gt;&#x9;&lt;/span&gt;&lt;/span&gt;string&lt;/div&gt;&lt;/div&gt;" style="align=left;strokeColor=#00CC66;fillColor=default;spacingLeft=4;spacingRight=4;fontSize=14;verticalAlign=middle;resizable=0;rotatable=0;part=1;html=1;whiteSpace=wrap;rounded=1;shadow=0;dashed=0;strokeWidth=2;arcSize=4;fontFamily=Helvetica;fontColor=default;fontStyle=0;horizontal=1;" parent="kM7gbS75rneJ0L8MpAQb-41" vertex="1">
          <mxGeometry y="50" width="260" height="92" as="geometry" />
        </mxCell>
        <mxCell id="kM7gbS75rneJ0L8MpAQb-43" value="Услуга-Курс" style="swimlane;childLayout=stackLayout;horizontal=1;startSize=50;horizontalStack=0;rounded=1;fontSize=14;fontStyle=0;strokeWidth=2;resizeParent=0;resizeLast=1;shadow=0;dashed=0;align=center;arcSize=4;whiteSpace=wrap;html=1;strokeColor=#00CC66;verticalAlign=middle;fontFamily=Helvetica;fontColor=default;fillColor=default;" parent="1" vertex="1">
          <mxGeometry x="1675" y="1398" width="180" height="100" as="geometry" />
        </mxCell>
        <mxCell id="kM7gbS75rneJ0L8MpAQb-44" value="Код курса&lt;span style=&quot;white-space: pre;&quot;&gt;&#x9;&lt;/span&gt;int&lt;br&gt;ID услуги&lt;span style=&quot;white-space: pre;&quot;&gt;&#x9;&lt;/span&gt;int" style="align=left;strokeColor=#00CC66;fillColor=default;spacingLeft=4;spacingRight=4;fontSize=14;verticalAlign=middle;resizable=0;rotatable=0;part=1;html=1;whiteSpace=wrap;rounded=1;shadow=0;dashed=0;strokeWidth=2;arcSize=4;fontFamily=Helvetica;fontColor=default;fontStyle=0;horizontal=1;" parent="kM7gbS75rneJ0L8MpAQb-43" vertex="1">
          <mxGeometry y="50" width="180" height="50" as="geometry" />
        </mxCell>
        <mxCell id="kM7gbS75rneJ0L8MpAQb-63" style="align=left;strokeColor=#00CC66;fillColor=default;spacingLeft=4;spacingRight=4;fontSize=14;verticalAlign=middle;resizable=0;rotatable=0;part=1;html=1;whiteSpace=wrap;rounded=1;shadow=0;dashed=0;strokeWidth=2;arcSize=4;fontFamily=Helvetica;fontColor=default;fontStyle=0;horizontal=1;" parent="kM7gbS75rneJ0L8MpAQb-43" vertex="1">
          <mxGeometry y="100" width="180" as="geometry" />
        </mxCell>
        <mxCell id="kM7gbS75rneJ0L8MpAQb-64" value="Course" style="shape=table;startSize=30;container=1;collapsible=1;childLayout=tableLayout;fixedRows=1;rowLines=0;fontStyle=1;align=center;resizeLast=1;html=1;" parent="1" vertex="1">
          <mxGeometry x="1820" y="1722" width="190" height="180" as="geometry" />
        </mxCell>
        <mxCell id="kM7gbS75rneJ0L8MpAQb-65" value="" style="shape=tableRow;horizontal=0;startSize=0;swimlaneHead=0;swimlaneBody=0;fillColor=none;collapsible=0;dropTarget=0;points=[[0,0.5],[1,0.5]];portConstraint=eastwest;top=0;left=0;right=0;bottom=1;" parent="kM7gbS75rneJ0L8MpAQb-64" vertex="1">
          <mxGeometry y="30" width="190" height="30" as="geometry" />
        </mxCell>
        <mxCell id="kM7gbS75rneJ0L8MpAQb-66" value="PK" style="shape=partialRectangle;connectable=0;fillColor=none;top=0;left=0;bottom=0;right=0;fontStyle=1;overflow=hidden;whiteSpace=wrap;html=1;" parent="kM7gbS75rneJ0L8MpAQb-65" vertex="1">
          <mxGeometry width="30" height="30" as="geometry">
            <mxRectangle width="30" height="30" as="alternateBounds" />
          </mxGeometry>
        </mxCell>
        <mxCell id="kM7gbS75rneJ0L8MpAQb-67" value="course_id" style="shape=partialRectangle;connectable=0;fillColor=none;top=0;left=0;bottom=0;right=0;align=left;spacingLeft=6;fontStyle=5;overflow=hidden;whiteSpace=wrap;html=1;" parent="kM7gbS75rneJ0L8MpAQb-65" vertex="1">
          <mxGeometry x="30" width="100" height="30" as="geometry">
            <mxRectangle width="100" height="30" as="alternateBounds" />
          </mxGeometry>
        </mxCell>
        <mxCell id="kM7gbS75rneJ0L8MpAQb-77" value="int" style="shape=partialRectangle;connectable=0;fillColor=none;top=0;left=0;bottom=0;right=0;align=left;spacingLeft=6;fontStyle=5;overflow=hidden;whiteSpace=wrap;html=1;" parent="kM7gbS75rneJ0L8MpAQb-65" vertex="1">
          <mxGeometry x="130" width="60" height="30" as="geometry">
            <mxRectangle width="60" height="30" as="alternateBounds" />
          </mxGeometry>
        </mxCell>
        <mxCell id="kM7gbS75rneJ0L8MpAQb-68" value="" style="shape=tableRow;horizontal=0;startSize=0;swimlaneHead=0;swimlaneBody=0;fillColor=none;collapsible=0;dropTarget=0;points=[[0,0.5],[1,0.5]];portConstraint=eastwest;top=0;left=0;right=0;bottom=0;" parent="kM7gbS75rneJ0L8MpAQb-64" vertex="1">
          <mxGeometry y="60" width="190" height="30" as="geometry" />
        </mxCell>
        <mxCell id="kM7gbS75rneJ0L8MpAQb-69" value="" style="shape=partialRectangle;connectable=0;fillColor=none;top=0;left=0;bottom=0;right=0;editable=1;overflow=hidden;whiteSpace=wrap;html=1;" parent="kM7gbS75rneJ0L8MpAQb-68" vertex="1">
          <mxGeometry width="30" height="30" as="geometry">
            <mxRectangle width="30" height="30" as="alternateBounds" />
          </mxGeometry>
        </mxCell>
        <mxCell id="kM7gbS75rneJ0L8MpAQb-70" value="course_name" style="shape=partialRectangle;connectable=0;fillColor=none;top=0;left=0;bottom=0;right=0;align=left;spacingLeft=6;overflow=hidden;whiteSpace=wrap;html=1;" parent="kM7gbS75rneJ0L8MpAQb-68" vertex="1">
          <mxGeometry x="30" width="100" height="30" as="geometry">
            <mxRectangle width="100" height="30" as="alternateBounds" />
          </mxGeometry>
        </mxCell>
        <mxCell id="kM7gbS75rneJ0L8MpAQb-78" value="varchar" style="shape=partialRectangle;connectable=0;fillColor=none;top=0;left=0;bottom=0;right=0;align=left;spacingLeft=6;overflow=hidden;whiteSpace=wrap;html=1;" parent="kM7gbS75rneJ0L8MpAQb-68" vertex="1">
          <mxGeometry x="130" width="60" height="30" as="geometry">
            <mxRectangle width="60" height="30" as="alternateBounds" />
          </mxGeometry>
        </mxCell>
        <mxCell id="kM7gbS75rneJ0L8MpAQb-71" value="" style="shape=tableRow;horizontal=0;startSize=0;swimlaneHead=0;swimlaneBody=0;fillColor=none;collapsible=0;dropTarget=0;points=[[0,0.5],[1,0.5]];portConstraint=eastwest;top=0;left=0;right=0;bottom=0;" parent="kM7gbS75rneJ0L8MpAQb-64" vertex="1">
          <mxGeometry y="90" width="190" height="30" as="geometry" />
        </mxCell>
        <mxCell id="kM7gbS75rneJ0L8MpAQb-72" value="FK2" style="shape=partialRectangle;connectable=0;fillColor=none;top=0;left=0;bottom=0;right=0;editable=1;overflow=hidden;whiteSpace=wrap;html=1;" parent="kM7gbS75rneJ0L8MpAQb-71" vertex="1">
          <mxGeometry width="30" height="30" as="geometry">
            <mxRectangle width="30" height="30" as="alternateBounds" />
          </mxGeometry>
        </mxCell>
        <mxCell id="kM7gbS75rneJ0L8MpAQb-73" value="course_field" style="shape=partialRectangle;connectable=0;fillColor=none;top=0;left=0;bottom=0;right=0;align=left;spacingLeft=6;overflow=hidden;whiteSpace=wrap;html=1;" parent="kM7gbS75rneJ0L8MpAQb-71" vertex="1">
          <mxGeometry x="30" width="100" height="30" as="geometry">
            <mxRectangle width="100" height="30" as="alternateBounds" />
          </mxGeometry>
        </mxCell>
        <mxCell id="kM7gbS75rneJ0L8MpAQb-79" value="int" style="shape=partialRectangle;connectable=0;fillColor=none;top=0;left=0;bottom=0;right=0;align=left;spacingLeft=6;overflow=hidden;whiteSpace=wrap;html=1;" parent="kM7gbS75rneJ0L8MpAQb-71" vertex="1">
          <mxGeometry x="130" width="60" height="30" as="geometry">
            <mxRectangle width="60" height="30" as="alternateBounds" />
          </mxGeometry>
        </mxCell>
        <mxCell id="kM7gbS75rneJ0L8MpAQb-74" value="" style="shape=tableRow;horizontal=0;startSize=0;swimlaneHead=0;swimlaneBody=0;fillColor=none;collapsible=0;dropTarget=0;points=[[0,0.5],[1,0.5]];portConstraint=eastwest;top=0;left=0;right=0;bottom=0;" parent="kM7gbS75rneJ0L8MpAQb-64" vertex="1">
          <mxGeometry y="120" width="190" height="30" as="geometry" />
        </mxCell>
        <mxCell id="kM7gbS75rneJ0L8MpAQb-75" value="" style="shape=partialRectangle;connectable=0;fillColor=none;top=0;left=0;bottom=0;right=0;editable=1;overflow=hidden;whiteSpace=wrap;html=1;" parent="kM7gbS75rneJ0L8MpAQb-74" vertex="1">
          <mxGeometry width="30" height="30" as="geometry">
            <mxRectangle width="30" height="30" as="alternateBounds" />
          </mxGeometry>
        </mxCell>
        <mxCell id="kM7gbS75rneJ0L8MpAQb-76" value="course_cost" style="shape=partialRectangle;connectable=0;fillColor=none;top=0;left=0;bottom=0;right=0;align=left;spacingLeft=6;overflow=hidden;whiteSpace=wrap;html=1;" parent="kM7gbS75rneJ0L8MpAQb-74" vertex="1">
          <mxGeometry x="30" width="100" height="30" as="geometry">
            <mxRectangle width="100" height="30" as="alternateBounds" />
          </mxGeometry>
        </mxCell>
        <mxCell id="kM7gbS75rneJ0L8MpAQb-80" value="numeric" style="shape=partialRectangle;connectable=0;fillColor=none;top=0;left=0;bottom=0;right=0;align=left;spacingLeft=6;overflow=hidden;whiteSpace=wrap;html=1;" parent="kM7gbS75rneJ0L8MpAQb-74" vertex="1">
          <mxGeometry x="130" width="60" height="30" as="geometry">
            <mxRectangle width="60" height="30" as="alternateBounds" />
          </mxGeometry>
        </mxCell>
        <mxCell id="kM7gbS75rneJ0L8MpAQb-81" style="shape=tableRow;horizontal=0;startSize=0;swimlaneHead=0;swimlaneBody=0;fillColor=none;collapsible=0;dropTarget=0;points=[[0,0.5],[1,0.5]];portConstraint=eastwest;top=0;left=0;right=0;bottom=0;" parent="kM7gbS75rneJ0L8MpAQb-64" vertex="1">
          <mxGeometry y="150" width="190" height="30" as="geometry" />
        </mxCell>
        <mxCell id="kM7gbS75rneJ0L8MpAQb-82" value="FK1" style="shape=partialRectangle;connectable=0;fillColor=none;top=0;left=0;bottom=0;right=0;editable=1;overflow=hidden;whiteSpace=wrap;html=1;" parent="kM7gbS75rneJ0L8MpAQb-81" vertex="1">
          <mxGeometry width="30" height="30" as="geometry">
            <mxRectangle width="30" height="30" as="alternateBounds" />
          </mxGeometry>
        </mxCell>
        <mxCell id="kM7gbS75rneJ0L8MpAQb-83" value="course_tutor" style="shape=partialRectangle;connectable=0;fillColor=none;top=0;left=0;bottom=0;right=0;align=left;spacingLeft=6;overflow=hidden;whiteSpace=wrap;html=1;" parent="kM7gbS75rneJ0L8MpAQb-81" vertex="1">
          <mxGeometry x="30" width="100" height="30" as="geometry">
            <mxRectangle width="100" height="30" as="alternateBounds" />
          </mxGeometry>
        </mxCell>
        <mxCell id="kM7gbS75rneJ0L8MpAQb-84" value="int" style="shape=partialRectangle;connectable=0;fillColor=none;top=0;left=0;bottom=0;right=0;align=left;spacingLeft=6;overflow=hidden;whiteSpace=wrap;html=1;" parent="kM7gbS75rneJ0L8MpAQb-81" vertex="1">
          <mxGeometry x="130" width="60" height="30" as="geometry">
            <mxRectangle width="60" height="30" as="alternateBounds" />
          </mxGeometry>
        </mxCell>
        <mxCell id="kM7gbS75rneJ0L8MpAQb-85" value="" style="endArrow=classic;html=1;rounded=0;edgeStyle=orthogonalEdgeStyle;" parent="1" source="rtd8d4LD0FCR1Tc062K_-2" target="kM7gbS75rneJ0L8MpAQb-81" edge="1">
          <mxGeometry width="50" height="50" relative="1" as="geometry">
            <mxPoint x="1659" y="1905.0526315789475" as="sourcePoint" />
            <mxPoint x="1760" y="1902" as="targetPoint" />
          </mxGeometry>
        </mxCell>
        <mxCell id="kM7gbS75rneJ0L8MpAQb-86" value="Course_field" style="shape=table;startSize=30;container=1;collapsible=1;childLayout=tableLayout;fixedRows=1;rowLines=0;fontStyle=1;align=center;resizeLast=1;html=1;" parent="1" vertex="1">
          <mxGeometry x="1489" y="1722" width="250" height="120" as="geometry" />
        </mxCell>
        <mxCell id="kM7gbS75rneJ0L8MpAQb-87" value="" style="shape=tableRow;horizontal=0;startSize=0;swimlaneHead=0;swimlaneBody=0;fillColor=none;collapsible=0;dropTarget=0;points=[[0,0.5],[1,0.5]];portConstraint=eastwest;top=0;left=0;right=0;bottom=1;" parent="kM7gbS75rneJ0L8MpAQb-86" vertex="1">
          <mxGeometry y="30" width="250" height="30" as="geometry" />
        </mxCell>
        <mxCell id="kM7gbS75rneJ0L8MpAQb-88" value="PK" style="shape=partialRectangle;connectable=0;fillColor=none;top=0;left=0;bottom=0;right=0;fontStyle=1;overflow=hidden;whiteSpace=wrap;html=1;" parent="kM7gbS75rneJ0L8MpAQb-87" vertex="1">
          <mxGeometry width="30" height="30" as="geometry">
            <mxRectangle width="30" height="30" as="alternateBounds" />
          </mxGeometry>
        </mxCell>
        <mxCell id="kM7gbS75rneJ0L8MpAQb-89" value="course_field_id" style="shape=partialRectangle;connectable=0;fillColor=none;top=0;left=0;bottom=0;right=0;align=left;spacingLeft=6;fontStyle=5;overflow=hidden;whiteSpace=wrap;html=1;" parent="kM7gbS75rneJ0L8MpAQb-87" vertex="1">
          <mxGeometry x="30" width="150" height="30" as="geometry">
            <mxRectangle width="150" height="30" as="alternateBounds" />
          </mxGeometry>
        </mxCell>
        <mxCell id="kM7gbS75rneJ0L8MpAQb-99" value="int" style="shape=partialRectangle;connectable=0;fillColor=none;top=0;left=0;bottom=0;right=0;align=left;spacingLeft=6;fontStyle=5;overflow=hidden;whiteSpace=wrap;html=1;" parent="kM7gbS75rneJ0L8MpAQb-87" vertex="1">
          <mxGeometry x="180" width="70" height="30" as="geometry">
            <mxRectangle width="70" height="30" as="alternateBounds" />
          </mxGeometry>
        </mxCell>
        <mxCell id="kM7gbS75rneJ0L8MpAQb-90" value="" style="shape=tableRow;horizontal=0;startSize=0;swimlaneHead=0;swimlaneBody=0;fillColor=none;collapsible=0;dropTarget=0;points=[[0,0.5],[1,0.5]];portConstraint=eastwest;top=0;left=0;right=0;bottom=0;" parent="kM7gbS75rneJ0L8MpAQb-86" vertex="1">
          <mxGeometry y="60" width="250" height="30" as="geometry" />
        </mxCell>
        <mxCell id="kM7gbS75rneJ0L8MpAQb-91" value="" style="shape=partialRectangle;connectable=0;fillColor=none;top=0;left=0;bottom=0;right=0;editable=1;overflow=hidden;whiteSpace=wrap;html=1;" parent="kM7gbS75rneJ0L8MpAQb-90" vertex="1">
          <mxGeometry width="30" height="30" as="geometry">
            <mxRectangle width="30" height="30" as="alternateBounds" />
          </mxGeometry>
        </mxCell>
        <mxCell id="kM7gbS75rneJ0L8MpAQb-92" value="&lt;div&gt;&lt;span style=&quot;background-color: transparent; color: light-dark(rgb(0, 0, 0), rgb(255, 255, 255));&quot;&gt;field_name&lt;/span&gt;&lt;/div&gt;" style="shape=partialRectangle;connectable=0;fillColor=none;top=0;left=0;bottom=0;right=0;align=left;spacingLeft=6;overflow=hidden;whiteSpace=wrap;html=1;" parent="kM7gbS75rneJ0L8MpAQb-90" vertex="1">
          <mxGeometry x="30" width="150" height="30" as="geometry">
            <mxRectangle width="150" height="30" as="alternateBounds" />
          </mxGeometry>
        </mxCell>
        <mxCell id="kM7gbS75rneJ0L8MpAQb-100" value="varchar" style="shape=partialRectangle;connectable=0;fillColor=none;top=0;left=0;bottom=0;right=0;align=left;spacingLeft=6;overflow=hidden;whiteSpace=wrap;html=1;" parent="kM7gbS75rneJ0L8MpAQb-90" vertex="1">
          <mxGeometry x="180" width="70" height="30" as="geometry">
            <mxRectangle width="70" height="30" as="alternateBounds" />
          </mxGeometry>
        </mxCell>
        <mxCell id="kM7gbS75rneJ0L8MpAQb-93" value="" style="shape=tableRow;horizontal=0;startSize=0;swimlaneHead=0;swimlaneBody=0;fillColor=none;collapsible=0;dropTarget=0;points=[[0,0.5],[1,0.5]];portConstraint=eastwest;top=0;left=0;right=0;bottom=0;" parent="kM7gbS75rneJ0L8MpAQb-86" vertex="1">
          <mxGeometry y="90" width="250" height="30" as="geometry" />
        </mxCell>
        <mxCell id="kM7gbS75rneJ0L8MpAQb-94" value="" style="shape=partialRectangle;connectable=0;fillColor=none;top=0;left=0;bottom=0;right=0;editable=1;overflow=hidden;whiteSpace=wrap;html=1;" parent="kM7gbS75rneJ0L8MpAQb-93" vertex="1">
          <mxGeometry width="30" height="30" as="geometry">
            <mxRectangle width="30" height="30" as="alternateBounds" />
          </mxGeometry>
        </mxCell>
        <mxCell id="kM7gbS75rneJ0L8MpAQb-95" value="field_description" style="shape=partialRectangle;connectable=0;fillColor=none;top=0;left=0;bottom=0;right=0;align=left;spacingLeft=6;overflow=hidden;whiteSpace=wrap;html=1;" parent="kM7gbS75rneJ0L8MpAQb-93" vertex="1">
          <mxGeometry x="30" width="150" height="30" as="geometry">
            <mxRectangle width="150" height="30" as="alternateBounds" />
          </mxGeometry>
        </mxCell>
        <mxCell id="kM7gbS75rneJ0L8MpAQb-101" value="varchar" style="shape=partialRectangle;connectable=0;fillColor=none;top=0;left=0;bottom=0;right=0;align=left;spacingLeft=6;overflow=hidden;whiteSpace=wrap;html=1;" parent="kM7gbS75rneJ0L8MpAQb-93" vertex="1">
          <mxGeometry x="180" width="70" height="30" as="geometry">
            <mxRectangle width="70" height="30" as="alternateBounds" />
          </mxGeometry>
        </mxCell>
        <mxCell id="kM7gbS75rneJ0L8MpAQb-102" value="" style="endArrow=classic;html=1;rounded=0;edgeStyle=orthogonalEdgeStyle;" parent="1" source="kM7gbS75rneJ0L8MpAQb-87" target="kM7gbS75rneJ0L8MpAQb-71" edge="1">
          <mxGeometry width="50" height="50" relative="1" as="geometry">
            <mxPoint x="1870" y="1772" as="sourcePoint" />
            <mxPoint x="1920" y="1722" as="targetPoint" />
          </mxGeometry>
        </mxCell>
        <mxCell id="kM7gbS75rneJ0L8MpAQb-103" value="Students" style="shape=table;startSize=30;container=1;collapsible=1;childLayout=tableLayout;fixedRows=1;rowLines=0;fontStyle=1;align=center;resizeLast=1;html=1;" parent="1" vertex="1">
          <mxGeometry x="1540" y="2060" width="190" height="180" as="geometry" />
        </mxCell>
        <mxCell id="kM7gbS75rneJ0L8MpAQb-104" value="" style="shape=tableRow;horizontal=0;startSize=0;swimlaneHead=0;swimlaneBody=0;fillColor=none;collapsible=0;dropTarget=0;points=[[0,0.5],[1,0.5]];portConstraint=eastwest;top=0;left=0;right=0;bottom=1;" parent="kM7gbS75rneJ0L8MpAQb-103" vertex="1">
          <mxGeometry y="30" width="190" height="30" as="geometry" />
        </mxCell>
        <mxCell id="kM7gbS75rneJ0L8MpAQb-105" value="PK" style="shape=partialRectangle;connectable=0;fillColor=none;top=0;left=0;bottom=0;right=0;fontStyle=1;overflow=hidden;whiteSpace=wrap;html=1;" parent="kM7gbS75rneJ0L8MpAQb-104" vertex="1">
          <mxGeometry width="30" height="30" as="geometry">
            <mxRectangle width="30" height="30" as="alternateBounds" />
          </mxGeometry>
        </mxCell>
        <mxCell id="kM7gbS75rneJ0L8MpAQb-106" value="student_id" style="shape=partialRectangle;connectable=0;fillColor=none;top=0;left=0;bottom=0;right=0;align=left;spacingLeft=6;fontStyle=5;overflow=hidden;whiteSpace=wrap;html=1;" parent="kM7gbS75rneJ0L8MpAQb-104" vertex="1">
          <mxGeometry x="30" width="80" height="30" as="geometry">
            <mxRectangle width="80" height="30" as="alternateBounds" />
          </mxGeometry>
        </mxCell>
        <mxCell id="kM7gbS75rneJ0L8MpAQb-119" value="int" style="shape=partialRectangle;connectable=0;fillColor=none;top=0;left=0;bottom=0;right=0;align=left;spacingLeft=6;fontStyle=5;overflow=hidden;whiteSpace=wrap;html=1;" parent="kM7gbS75rneJ0L8MpAQb-104" vertex="1">
          <mxGeometry x="110" width="80" height="30" as="geometry">
            <mxRectangle width="80" height="30" as="alternateBounds" />
          </mxGeometry>
        </mxCell>
        <mxCell id="kM7gbS75rneJ0L8MpAQb-107" value="" style="shape=tableRow;horizontal=0;startSize=0;swimlaneHead=0;swimlaneBody=0;fillColor=none;collapsible=0;dropTarget=0;points=[[0,0.5],[1,0.5]];portConstraint=eastwest;top=0;left=0;right=0;bottom=0;" parent="kM7gbS75rneJ0L8MpAQb-103" vertex="1">
          <mxGeometry y="60" width="190" height="30" as="geometry" />
        </mxCell>
        <mxCell id="kM7gbS75rneJ0L8MpAQb-108" value="" style="shape=partialRectangle;connectable=0;fillColor=none;top=0;left=0;bottom=0;right=0;editable=1;overflow=hidden;whiteSpace=wrap;html=1;" parent="kM7gbS75rneJ0L8MpAQb-107" vertex="1">
          <mxGeometry width="30" height="30" as="geometry">
            <mxRectangle width="30" height="30" as="alternateBounds" />
          </mxGeometry>
        </mxCell>
        <mxCell id="kM7gbS75rneJ0L8MpAQb-109" value="created_at" style="shape=partialRectangle;connectable=0;fillColor=none;top=0;left=0;bottom=0;right=0;align=left;spacingLeft=6;overflow=hidden;whiteSpace=wrap;html=1;" parent="kM7gbS75rneJ0L8MpAQb-107" vertex="1">
          <mxGeometry x="30" width="80" height="30" as="geometry">
            <mxRectangle width="80" height="30" as="alternateBounds" />
          </mxGeometry>
        </mxCell>
        <mxCell id="kM7gbS75rneJ0L8MpAQb-120" value="timestamp" style="shape=partialRectangle;connectable=0;fillColor=none;top=0;left=0;bottom=0;right=0;align=left;spacingLeft=6;overflow=hidden;whiteSpace=wrap;html=1;" parent="kM7gbS75rneJ0L8MpAQb-107" vertex="1">
          <mxGeometry x="110" width="80" height="30" as="geometry">
            <mxRectangle width="80" height="30" as="alternateBounds" />
          </mxGeometry>
        </mxCell>
        <mxCell id="kM7gbS75rneJ0L8MpAQb-110" value="" style="shape=tableRow;horizontal=0;startSize=0;swimlaneHead=0;swimlaneBody=0;fillColor=none;collapsible=0;dropTarget=0;points=[[0,0.5],[1,0.5]];portConstraint=eastwest;top=0;left=0;right=0;bottom=0;" parent="kM7gbS75rneJ0L8MpAQb-103" vertex="1">
          <mxGeometry y="90" width="190" height="30" as="geometry" />
        </mxCell>
        <mxCell id="kM7gbS75rneJ0L8MpAQb-111" value="" style="shape=partialRectangle;connectable=0;fillColor=none;top=0;left=0;bottom=0;right=0;editable=1;overflow=hidden;whiteSpace=wrap;html=1;" parent="kM7gbS75rneJ0L8MpAQb-110" vertex="1">
          <mxGeometry width="30" height="30" as="geometry">
            <mxRectangle width="30" height="30" as="alternateBounds" />
          </mxGeometry>
        </mxCell>
        <mxCell id="kM7gbS75rneJ0L8MpAQb-112" value="full_name" style="shape=partialRectangle;connectable=0;fillColor=none;top=0;left=0;bottom=0;right=0;align=left;spacingLeft=6;overflow=hidden;whiteSpace=wrap;html=1;" parent="kM7gbS75rneJ0L8MpAQb-110" vertex="1">
          <mxGeometry x="30" width="80" height="30" as="geometry">
            <mxRectangle width="80" height="30" as="alternateBounds" />
          </mxGeometry>
        </mxCell>
        <mxCell id="kM7gbS75rneJ0L8MpAQb-121" value="varchar" style="shape=partialRectangle;connectable=0;fillColor=none;top=0;left=0;bottom=0;right=0;align=left;spacingLeft=6;overflow=hidden;whiteSpace=wrap;html=1;" parent="kM7gbS75rneJ0L8MpAQb-110" vertex="1">
          <mxGeometry x="110" width="80" height="30" as="geometry">
            <mxRectangle width="80" height="30" as="alternateBounds" />
          </mxGeometry>
        </mxCell>
        <mxCell id="kM7gbS75rneJ0L8MpAQb-113" value="" style="shape=tableRow;horizontal=0;startSize=0;swimlaneHead=0;swimlaneBody=0;fillColor=none;collapsible=0;dropTarget=0;points=[[0,0.5],[1,0.5]];portConstraint=eastwest;top=0;left=0;right=0;bottom=0;" parent="kM7gbS75rneJ0L8MpAQb-103" vertex="1">
          <mxGeometry y="120" width="190" height="30" as="geometry" />
        </mxCell>
        <mxCell id="kM7gbS75rneJ0L8MpAQb-114" value="" style="shape=partialRectangle;connectable=0;fillColor=none;top=0;left=0;bottom=0;right=0;editable=1;overflow=hidden;whiteSpace=wrap;html=1;" parent="kM7gbS75rneJ0L8MpAQb-113" vertex="1">
          <mxGeometry width="30" height="30" as="geometry">
            <mxRectangle width="30" height="30" as="alternateBounds" />
          </mxGeometry>
        </mxCell>
        <mxCell id="kM7gbS75rneJ0L8MpAQb-115" value="phone" style="shape=partialRectangle;connectable=0;fillColor=none;top=0;left=0;bottom=0;right=0;align=left;spacingLeft=6;overflow=hidden;whiteSpace=wrap;html=1;" parent="kM7gbS75rneJ0L8MpAQb-113" vertex="1">
          <mxGeometry x="30" width="80" height="30" as="geometry">
            <mxRectangle width="80" height="30" as="alternateBounds" />
          </mxGeometry>
        </mxCell>
        <mxCell id="kM7gbS75rneJ0L8MpAQb-122" value="varchar" style="shape=partialRectangle;connectable=0;fillColor=none;top=0;left=0;bottom=0;right=0;align=left;spacingLeft=6;overflow=hidden;whiteSpace=wrap;html=1;" parent="kM7gbS75rneJ0L8MpAQb-113" vertex="1">
          <mxGeometry x="110" width="80" height="30" as="geometry">
            <mxRectangle width="80" height="30" as="alternateBounds" />
          </mxGeometry>
        </mxCell>
        <mxCell id="kM7gbS75rneJ0L8MpAQb-116" style="shape=tableRow;horizontal=0;startSize=0;swimlaneHead=0;swimlaneBody=0;fillColor=none;collapsible=0;dropTarget=0;points=[[0,0.5],[1,0.5]];portConstraint=eastwest;top=0;left=0;right=0;bottom=0;" parent="kM7gbS75rneJ0L8MpAQb-103" vertex="1">
          <mxGeometry y="150" width="190" height="30" as="geometry" />
        </mxCell>
        <mxCell id="kM7gbS75rneJ0L8MpAQb-117" style="shape=partialRectangle;connectable=0;fillColor=none;top=0;left=0;bottom=0;right=0;editable=1;overflow=hidden;whiteSpace=wrap;html=1;" parent="kM7gbS75rneJ0L8MpAQb-116" vertex="1">
          <mxGeometry width="30" height="30" as="geometry">
            <mxRectangle width="30" height="30" as="alternateBounds" />
          </mxGeometry>
        </mxCell>
        <mxCell id="kM7gbS75rneJ0L8MpAQb-118" value="email" style="shape=partialRectangle;connectable=0;fillColor=none;top=0;left=0;bottom=0;right=0;align=left;spacingLeft=6;overflow=hidden;whiteSpace=wrap;html=1;" parent="kM7gbS75rneJ0L8MpAQb-116" vertex="1">
          <mxGeometry x="30" width="80" height="30" as="geometry">
            <mxRectangle width="80" height="30" as="alternateBounds" />
          </mxGeometry>
        </mxCell>
        <mxCell id="kM7gbS75rneJ0L8MpAQb-123" value="varchar" style="shape=partialRectangle;connectable=0;fillColor=none;top=0;left=0;bottom=0;right=0;align=left;spacingLeft=6;overflow=hidden;whiteSpace=wrap;html=1;" parent="kM7gbS75rneJ0L8MpAQb-116" vertex="1">
          <mxGeometry x="110" width="80" height="30" as="geometry">
            <mxRectangle width="80" height="30" as="alternateBounds" />
          </mxGeometry>
        </mxCell>
        <mxCell id="kM7gbS75rneJ0L8MpAQb-124" value="Payment" style="shape=table;startSize=30;container=1;collapsible=1;childLayout=tableLayout;fixedRows=1;rowLines=0;fontStyle=1;align=center;resizeLast=1;html=1;" parent="1" vertex="1">
          <mxGeometry x="1540" y="2272" width="180" height="150" as="geometry" />
        </mxCell>
        <mxCell id="kM7gbS75rneJ0L8MpAQb-125" value="" style="shape=tableRow;horizontal=0;startSize=0;swimlaneHead=0;swimlaneBody=0;fillColor=none;collapsible=0;dropTarget=0;points=[[0,0.5],[1,0.5]];portConstraint=eastwest;top=0;left=0;right=0;bottom=1;" parent="kM7gbS75rneJ0L8MpAQb-124" vertex="1">
          <mxGeometry y="30" width="180" height="30" as="geometry" />
        </mxCell>
        <mxCell id="kM7gbS75rneJ0L8MpAQb-126" value="PK" style="shape=partialRectangle;connectable=0;fillColor=none;top=0;left=0;bottom=0;right=0;fontStyle=1;overflow=hidden;whiteSpace=wrap;html=1;" parent="kM7gbS75rneJ0L8MpAQb-125" vertex="1">
          <mxGeometry width="30" height="30" as="geometry">
            <mxRectangle width="30" height="30" as="alternateBounds" />
          </mxGeometry>
        </mxCell>
        <mxCell id="kM7gbS75rneJ0L8MpAQb-127" value="paymenmt_id" style="shape=partialRectangle;connectable=0;fillColor=none;top=0;left=0;bottom=0;right=0;align=left;spacingLeft=6;fontStyle=5;overflow=hidden;whiteSpace=wrap;html=1;" parent="kM7gbS75rneJ0L8MpAQb-125" vertex="1">
          <mxGeometry x="30" width="150" height="30" as="geometry">
            <mxRectangle width="150" height="30" as="alternateBounds" />
          </mxGeometry>
        </mxCell>
        <mxCell id="kM7gbS75rneJ0L8MpAQb-128" value="" style="shape=tableRow;horizontal=0;startSize=0;swimlaneHead=0;swimlaneBody=0;fillColor=none;collapsible=0;dropTarget=0;points=[[0,0.5],[1,0.5]];portConstraint=eastwest;top=0;left=0;right=0;bottom=0;" parent="kM7gbS75rneJ0L8MpAQb-124" vertex="1">
          <mxGeometry y="60" width="180" height="30" as="geometry" />
        </mxCell>
        <mxCell id="kM7gbS75rneJ0L8MpAQb-129" value="" style="shape=partialRectangle;connectable=0;fillColor=none;top=0;left=0;bottom=0;right=0;editable=1;overflow=hidden;whiteSpace=wrap;html=1;" parent="kM7gbS75rneJ0L8MpAQb-128" vertex="1">
          <mxGeometry width="30" height="30" as="geometry">
            <mxRectangle width="30" height="30" as="alternateBounds" />
          </mxGeometry>
        </mxCell>
        <mxCell id="kM7gbS75rneJ0L8MpAQb-130" value="created_at" style="shape=partialRectangle;connectable=0;fillColor=none;top=0;left=0;bottom=0;right=0;align=left;spacingLeft=6;overflow=hidden;whiteSpace=wrap;html=1;" parent="kM7gbS75rneJ0L8MpAQb-128" vertex="1">
          <mxGeometry x="30" width="150" height="30" as="geometry">
            <mxRectangle width="150" height="30" as="alternateBounds" />
          </mxGeometry>
        </mxCell>
        <mxCell id="kM7gbS75rneJ0L8MpAQb-131" value="" style="shape=tableRow;horizontal=0;startSize=0;swimlaneHead=0;swimlaneBody=0;fillColor=none;collapsible=0;dropTarget=0;points=[[0,0.5],[1,0.5]];portConstraint=eastwest;top=0;left=0;right=0;bottom=0;" parent="kM7gbS75rneJ0L8MpAQb-124" vertex="1">
          <mxGeometry y="90" width="180" height="30" as="geometry" />
        </mxCell>
        <mxCell id="kM7gbS75rneJ0L8MpAQb-132" value="FK" style="shape=partialRectangle;connectable=0;fillColor=none;top=0;left=0;bottom=0;right=0;editable=1;overflow=hidden;whiteSpace=wrap;html=1;" parent="kM7gbS75rneJ0L8MpAQb-131" vertex="1">
          <mxGeometry width="30" height="30" as="geometry">
            <mxRectangle width="30" height="30" as="alternateBounds" />
          </mxGeometry>
        </mxCell>
        <mxCell id="kM7gbS75rneJ0L8MpAQb-133" value="student_id" style="shape=partialRectangle;connectable=0;fillColor=none;top=0;left=0;bottom=0;right=0;align=left;spacingLeft=6;overflow=hidden;whiteSpace=wrap;html=1;" parent="kM7gbS75rneJ0L8MpAQb-131" vertex="1">
          <mxGeometry x="30" width="150" height="30" as="geometry">
            <mxRectangle width="150" height="30" as="alternateBounds" />
          </mxGeometry>
        </mxCell>
        <mxCell id="kM7gbS75rneJ0L8MpAQb-134" value="" style="shape=tableRow;horizontal=0;startSize=0;swimlaneHead=0;swimlaneBody=0;fillColor=none;collapsible=0;dropTarget=0;points=[[0,0.5],[1,0.5]];portConstraint=eastwest;top=0;left=0;right=0;bottom=0;" parent="kM7gbS75rneJ0L8MpAQb-124" vertex="1">
          <mxGeometry y="120" width="180" height="30" as="geometry" />
        </mxCell>
        <mxCell id="kM7gbS75rneJ0L8MpAQb-135" value="" style="shape=partialRectangle;connectable=0;fillColor=none;top=0;left=0;bottom=0;right=0;editable=1;overflow=hidden;whiteSpace=wrap;html=1;" parent="kM7gbS75rneJ0L8MpAQb-134" vertex="1">
          <mxGeometry width="30" height="30" as="geometry">
            <mxRectangle width="30" height="30" as="alternateBounds" />
          </mxGeometry>
        </mxCell>
        <mxCell id="kM7gbS75rneJ0L8MpAQb-136" value="amount" style="shape=partialRectangle;connectable=0;fillColor=none;top=0;left=0;bottom=0;right=0;align=left;spacingLeft=6;overflow=hidden;whiteSpace=wrap;html=1;" parent="kM7gbS75rneJ0L8MpAQb-134" vertex="1">
          <mxGeometry x="30" width="150" height="30" as="geometry">
            <mxRectangle width="150" height="30" as="alternateBounds" />
          </mxGeometry>
        </mxCell>
        <mxCell id="kM7gbS75rneJ0L8MpAQb-137" value="" style="endArrow=classic;html=1;rounded=0;edgeStyle=orthogonalEdgeStyle;" parent="1" source="kM7gbS75rneJ0L8MpAQb-104" target="kM7gbS75rneJ0L8MpAQb-131" edge="1">
          <mxGeometry width="50" height="50" relative="1" as="geometry">
            <mxPoint x="1860" y="2142" as="sourcePoint" />
            <mxPoint x="1910" y="2092" as="targetPoint" />
            <Array as="points">
              <mxPoint x="1490" y="2105" />
              <mxPoint x="1490" y="2377" />
            </Array>
          </mxGeometry>
        </mxCell>
        <mxCell id="kM7gbS75rneJ0L8MpAQb-138" value="Service" style="shape=table;startSize=30;container=1;collapsible=1;childLayout=tableLayout;fixedRows=1;rowLines=0;fontStyle=1;align=center;resizeLast=1;html=1;" parent="1" vertex="1">
          <mxGeometry x="1870" y="2272" width="180" height="120" as="geometry" />
        </mxCell>
        <mxCell id="kM7gbS75rneJ0L8MpAQb-139" value="" style="shape=tableRow;horizontal=0;startSize=0;swimlaneHead=0;swimlaneBody=0;fillColor=none;collapsible=0;dropTarget=0;points=[[0,0.5],[1,0.5]];portConstraint=eastwest;top=0;left=0;right=0;bottom=1;" parent="kM7gbS75rneJ0L8MpAQb-138" vertex="1">
          <mxGeometry y="30" width="180" height="30" as="geometry" />
        </mxCell>
        <mxCell id="kM7gbS75rneJ0L8MpAQb-140" value="PK" style="shape=partialRectangle;connectable=0;fillColor=none;top=0;left=0;bottom=0;right=0;fontStyle=1;overflow=hidden;whiteSpace=wrap;html=1;" parent="kM7gbS75rneJ0L8MpAQb-139" vertex="1">
          <mxGeometry width="30" height="30" as="geometry">
            <mxRectangle width="30" height="30" as="alternateBounds" />
          </mxGeometry>
        </mxCell>
        <mxCell id="kM7gbS75rneJ0L8MpAQb-141" value="service_id" style="shape=partialRectangle;connectable=0;fillColor=none;top=0;left=0;bottom=0;right=0;align=left;spacingLeft=6;fontStyle=5;overflow=hidden;whiteSpace=wrap;html=1;" parent="kM7gbS75rneJ0L8MpAQb-139" vertex="1">
          <mxGeometry x="30" width="150" height="30" as="geometry">
            <mxRectangle width="150" height="30" as="alternateBounds" />
          </mxGeometry>
        </mxCell>
        <mxCell id="kM7gbS75rneJ0L8MpAQb-142" value="" style="shape=tableRow;horizontal=0;startSize=0;swimlaneHead=0;swimlaneBody=0;fillColor=none;collapsible=0;dropTarget=0;points=[[0,0.5],[1,0.5]];portConstraint=eastwest;top=0;left=0;right=0;bottom=0;" parent="kM7gbS75rneJ0L8MpAQb-138" vertex="1">
          <mxGeometry y="60" width="180" height="30" as="geometry" />
        </mxCell>
        <mxCell id="kM7gbS75rneJ0L8MpAQb-143" value="" style="shape=partialRectangle;connectable=0;fillColor=none;top=0;left=0;bottom=0;right=0;editable=1;overflow=hidden;whiteSpace=wrap;html=1;" parent="kM7gbS75rneJ0L8MpAQb-142" vertex="1">
          <mxGeometry width="30" height="30" as="geometry">
            <mxRectangle width="30" height="30" as="alternateBounds" />
          </mxGeometry>
        </mxCell>
        <mxCell id="kM7gbS75rneJ0L8MpAQb-144" value="service_code" style="shape=partialRectangle;connectable=0;fillColor=none;top=0;left=0;bottom=0;right=0;align=left;spacingLeft=6;overflow=hidden;whiteSpace=wrap;html=1;" parent="kM7gbS75rneJ0L8MpAQb-142" vertex="1">
          <mxGeometry x="30" width="150" height="30" as="geometry">
            <mxRectangle width="150" height="30" as="alternateBounds" />
          </mxGeometry>
        </mxCell>
        <mxCell id="kM7gbS75rneJ0L8MpAQb-145" value="" style="shape=tableRow;horizontal=0;startSize=0;swimlaneHead=0;swimlaneBody=0;fillColor=none;collapsible=0;dropTarget=0;points=[[0,0.5],[1,0.5]];portConstraint=eastwest;top=0;left=0;right=0;bottom=0;" parent="kM7gbS75rneJ0L8MpAQb-138" vertex="1">
          <mxGeometry y="90" width="180" height="30" as="geometry" />
        </mxCell>
        <mxCell id="kM7gbS75rneJ0L8MpAQb-146" value="FK" style="shape=partialRectangle;connectable=0;fillColor=none;top=0;left=0;bottom=0;right=0;editable=1;overflow=hidden;whiteSpace=wrap;html=1;" parent="kM7gbS75rneJ0L8MpAQb-145" vertex="1">
          <mxGeometry width="30" height="30" as="geometry">
            <mxRectangle width="30" height="30" as="alternateBounds" />
          </mxGeometry>
        </mxCell>
        <mxCell id="kM7gbS75rneJ0L8MpAQb-147" value="payment_id" style="shape=partialRectangle;connectable=0;fillColor=none;top=0;left=0;bottom=0;right=0;align=left;spacingLeft=6;overflow=hidden;whiteSpace=wrap;html=1;" parent="kM7gbS75rneJ0L8MpAQb-145" vertex="1">
          <mxGeometry x="30" width="150" height="30" as="geometry">
            <mxRectangle width="150" height="30" as="alternateBounds" />
          </mxGeometry>
        </mxCell>
        <mxCell id="kM7gbS75rneJ0L8MpAQb-151" value="" style="endArrow=classic;html=1;rounded=0;edgeStyle=orthogonalEdgeStyle;" parent="1" source="kM7gbS75rneJ0L8MpAQb-125" target="kM7gbS75rneJ0L8MpAQb-145" edge="1">
          <mxGeometry width="50" height="50" relative="1" as="geometry">
            <mxPoint x="1930" y="2302" as="sourcePoint" />
            <mxPoint x="1980" y="2252" as="targetPoint" />
          </mxGeometry>
        </mxCell>
        <mxCell id="kM7gbS75rneJ0L8MpAQb-152" value="service_course" style="shape=table;startSize=30;container=1;collapsible=1;childLayout=tableLayout;fixedRows=1;rowLines=0;fontStyle=1;align=center;resizeLast=1;html=1;whiteSpace=wrap;" parent="1" vertex="1">
          <mxGeometry x="1870" y="2112" width="180" height="90" as="geometry" />
        </mxCell>
        <mxCell id="kM7gbS75rneJ0L8MpAQb-153" value="" style="shape=tableRow;horizontal=0;startSize=0;swimlaneHead=0;swimlaneBody=0;fillColor=none;collapsible=0;dropTarget=0;points=[[0,0.5],[1,0.5]];portConstraint=eastwest;top=0;left=0;right=0;bottom=0;html=1;" parent="kM7gbS75rneJ0L8MpAQb-152" vertex="1">
          <mxGeometry y="30" width="180" height="30" as="geometry" />
        </mxCell>
        <mxCell id="kM7gbS75rneJ0L8MpAQb-154" value="PK,FK1" style="shape=partialRectangle;connectable=0;fillColor=none;top=0;left=0;bottom=0;right=0;fontStyle=1;overflow=hidden;html=1;whiteSpace=wrap;" parent="kM7gbS75rneJ0L8MpAQb-153" vertex="1">
          <mxGeometry width="60" height="30" as="geometry">
            <mxRectangle width="60" height="30" as="alternateBounds" />
          </mxGeometry>
        </mxCell>
        <mxCell id="kM7gbS75rneJ0L8MpAQb-155" value="course_id" style="shape=partialRectangle;connectable=0;fillColor=none;top=0;left=0;bottom=0;right=0;align=left;spacingLeft=6;fontStyle=5;overflow=hidden;html=1;whiteSpace=wrap;" parent="kM7gbS75rneJ0L8MpAQb-153" vertex="1">
          <mxGeometry x="60" width="120" height="30" as="geometry">
            <mxRectangle width="120" height="30" as="alternateBounds" />
          </mxGeometry>
        </mxCell>
        <mxCell id="kM7gbS75rneJ0L8MpAQb-156" value="" style="shape=tableRow;horizontal=0;startSize=0;swimlaneHead=0;swimlaneBody=0;fillColor=none;collapsible=0;dropTarget=0;points=[[0,0.5],[1,0.5]];portConstraint=eastwest;top=0;left=0;right=0;bottom=1;html=1;" parent="kM7gbS75rneJ0L8MpAQb-152" vertex="1">
          <mxGeometry y="60" width="180" height="30" as="geometry" />
        </mxCell>
        <mxCell id="kM7gbS75rneJ0L8MpAQb-157" value="PK,FK2" style="shape=partialRectangle;connectable=0;fillColor=none;top=0;left=0;bottom=0;right=0;fontStyle=1;overflow=hidden;html=1;whiteSpace=wrap;" parent="kM7gbS75rneJ0L8MpAQb-156" vertex="1">
          <mxGeometry width="60" height="30" as="geometry">
            <mxRectangle width="60" height="30" as="alternateBounds" />
          </mxGeometry>
        </mxCell>
        <mxCell id="kM7gbS75rneJ0L8MpAQb-158" value="service_id" style="shape=partialRectangle;connectable=0;fillColor=none;top=0;left=0;bottom=0;right=0;align=left;spacingLeft=6;fontStyle=5;overflow=hidden;html=1;whiteSpace=wrap;" parent="kM7gbS75rneJ0L8MpAQb-156" vertex="1">
          <mxGeometry x="60" width="120" height="30" as="geometry">
            <mxRectangle width="120" height="30" as="alternateBounds" />
          </mxGeometry>
        </mxCell>
        <mxCell id="kM7gbS75rneJ0L8MpAQb-165" value="" style="endArrow=classic;html=1;rounded=0;edgeStyle=orthogonalEdgeStyle;" parent="1" source="kM7gbS75rneJ0L8MpAQb-139" target="kM7gbS75rneJ0L8MpAQb-156" edge="1">
          <mxGeometry width="50" height="50" relative="1" as="geometry">
            <mxPoint x="1700" y="2192" as="sourcePoint" />
            <mxPoint x="1750" y="2142" as="targetPoint" />
            <Array as="points">
              <mxPoint x="1830" y="2317" />
              <mxPoint x="1830" y="2182" />
            </Array>
          </mxGeometry>
        </mxCell>
        <mxCell id="kM7gbS75rneJ0L8MpAQb-166" value="" style="endArrow=classic;html=1;rounded=0;edgeStyle=orthogonalEdgeStyle;" parent="1" source="kM7gbS75rneJ0L8MpAQb-65" target="kM7gbS75rneJ0L8MpAQb-153" edge="1">
          <mxGeometry width="50" height="50" relative="1" as="geometry">
            <mxPoint x="2180" y="2032" as="sourcePoint" />
            <mxPoint x="2230" y="1982" as="targetPoint" />
            <Array as="points">
              <mxPoint x="2050" y="1767" />
              <mxPoint x="2050" y="1962" />
              <mxPoint x="1830" y="1962" />
              <mxPoint x="1830" y="2157" />
            </Array>
          </mxGeometry>
        </mxCell>
        <mxCell id="rtd8d4LD0FCR1Tc062K_-1" value="Tutor" style="shape=table;startSize=30;container=1;collapsible=1;childLayout=tableLayout;fixedRows=1;rowLines=0;fontStyle=1;align=center;resizeLast=1;html=1;" parent="1" vertex="1">
          <mxGeometry x="1489" y="1870" width="190" height="180" as="geometry" />
        </mxCell>
        <mxCell id="rtd8d4LD0FCR1Tc062K_-2" value="" style="shape=tableRow;horizontal=0;startSize=0;swimlaneHead=0;swimlaneBody=0;fillColor=none;collapsible=0;dropTarget=0;points=[[0,0.5],[1,0.5]];portConstraint=eastwest;top=0;left=0;right=0;bottom=1;" parent="rtd8d4LD0FCR1Tc062K_-1" vertex="1">
          <mxGeometry y="30" width="190" height="30" as="geometry" />
        </mxCell>
        <mxCell id="rtd8d4LD0FCR1Tc062K_-3" value="PK" style="shape=partialRectangle;connectable=0;fillColor=none;top=0;left=0;bottom=0;right=0;fontStyle=1;overflow=hidden;whiteSpace=wrap;html=1;" parent="rtd8d4LD0FCR1Tc062K_-2" vertex="1">
          <mxGeometry width="30" height="30" as="geometry">
            <mxRectangle width="30" height="30" as="alternateBounds" />
          </mxGeometry>
        </mxCell>
        <mxCell id="rtd8d4LD0FCR1Tc062K_-4" value="tutor_id" style="shape=partialRectangle;connectable=0;fillColor=none;top=0;left=0;bottom=0;right=0;align=left;spacingLeft=6;fontStyle=5;overflow=hidden;whiteSpace=wrap;html=1;" parent="rtd8d4LD0FCR1Tc062K_-2" vertex="1">
          <mxGeometry x="30" width="80" height="30" as="geometry">
            <mxRectangle width="80" height="30" as="alternateBounds" />
          </mxGeometry>
        </mxCell>
        <mxCell id="rtd8d4LD0FCR1Tc062K_-5" value="int" style="shape=partialRectangle;connectable=0;fillColor=none;top=0;left=0;bottom=0;right=0;align=left;spacingLeft=6;fontStyle=5;overflow=hidden;whiteSpace=wrap;html=1;" parent="rtd8d4LD0FCR1Tc062K_-2" vertex="1">
          <mxGeometry x="110" width="80" height="30" as="geometry">
            <mxRectangle width="80" height="30" as="alternateBounds" />
          </mxGeometry>
        </mxCell>
        <mxCell id="rtd8d4LD0FCR1Tc062K_-6" value="" style="shape=tableRow;horizontal=0;startSize=0;swimlaneHead=0;swimlaneBody=0;fillColor=none;collapsible=0;dropTarget=0;points=[[0,0.5],[1,0.5]];portConstraint=eastwest;top=0;left=0;right=0;bottom=0;" parent="rtd8d4LD0FCR1Tc062K_-1" vertex="1">
          <mxGeometry y="60" width="190" height="30" as="geometry" />
        </mxCell>
        <mxCell id="rtd8d4LD0FCR1Tc062K_-7" value="" style="shape=partialRectangle;connectable=0;fillColor=none;top=0;left=0;bottom=0;right=0;editable=1;overflow=hidden;whiteSpace=wrap;html=1;" parent="rtd8d4LD0FCR1Tc062K_-6" vertex="1">
          <mxGeometry width="30" height="30" as="geometry">
            <mxRectangle width="30" height="30" as="alternateBounds" />
          </mxGeometry>
        </mxCell>
        <mxCell id="rtd8d4LD0FCR1Tc062K_-8" value="created_at" style="shape=partialRectangle;connectable=0;fillColor=none;top=0;left=0;bottom=0;right=0;align=left;spacingLeft=6;overflow=hidden;whiteSpace=wrap;html=1;" parent="rtd8d4LD0FCR1Tc062K_-6" vertex="1">
          <mxGeometry x="30" width="80" height="30" as="geometry">
            <mxRectangle width="80" height="30" as="alternateBounds" />
          </mxGeometry>
        </mxCell>
        <mxCell id="rtd8d4LD0FCR1Tc062K_-9" value="timestamp" style="shape=partialRectangle;connectable=0;fillColor=none;top=0;left=0;bottom=0;right=0;align=left;spacingLeft=6;overflow=hidden;whiteSpace=wrap;html=1;" parent="rtd8d4LD0FCR1Tc062K_-6" vertex="1">
          <mxGeometry x="110" width="80" height="30" as="geometry">
            <mxRectangle width="80" height="30" as="alternateBounds" />
          </mxGeometry>
        </mxCell>
        <mxCell id="rtd8d4LD0FCR1Tc062K_-10" value="" style="shape=tableRow;horizontal=0;startSize=0;swimlaneHead=0;swimlaneBody=0;fillColor=none;collapsible=0;dropTarget=0;points=[[0,0.5],[1,0.5]];portConstraint=eastwest;top=0;left=0;right=0;bottom=0;" parent="rtd8d4LD0FCR1Tc062K_-1" vertex="1">
          <mxGeometry y="90" width="190" height="30" as="geometry" />
        </mxCell>
        <mxCell id="rtd8d4LD0FCR1Tc062K_-11" value="" style="shape=partialRectangle;connectable=0;fillColor=none;top=0;left=0;bottom=0;right=0;editable=1;overflow=hidden;whiteSpace=wrap;html=1;" parent="rtd8d4LD0FCR1Tc062K_-10" vertex="1">
          <mxGeometry width="30" height="30" as="geometry">
            <mxRectangle width="30" height="30" as="alternateBounds" />
          </mxGeometry>
        </mxCell>
        <mxCell id="rtd8d4LD0FCR1Tc062K_-12" value="full_name" style="shape=partialRectangle;connectable=0;fillColor=none;top=0;left=0;bottom=0;right=0;align=left;spacingLeft=6;overflow=hidden;whiteSpace=wrap;html=1;" parent="rtd8d4LD0FCR1Tc062K_-10" vertex="1">
          <mxGeometry x="30" width="80" height="30" as="geometry">
            <mxRectangle width="80" height="30" as="alternateBounds" />
          </mxGeometry>
        </mxCell>
        <mxCell id="rtd8d4LD0FCR1Tc062K_-13" value="varchar" style="shape=partialRectangle;connectable=0;fillColor=none;top=0;left=0;bottom=0;right=0;align=left;spacingLeft=6;overflow=hidden;whiteSpace=wrap;html=1;" parent="rtd8d4LD0FCR1Tc062K_-10" vertex="1">
          <mxGeometry x="110" width="80" height="30" as="geometry">
            <mxRectangle width="80" height="30" as="alternateBounds" />
          </mxGeometry>
        </mxCell>
        <mxCell id="rtd8d4LD0FCR1Tc062K_-14" value="" style="shape=tableRow;horizontal=0;startSize=0;swimlaneHead=0;swimlaneBody=0;fillColor=none;collapsible=0;dropTarget=0;points=[[0,0.5],[1,0.5]];portConstraint=eastwest;top=0;left=0;right=0;bottom=0;" parent="rtd8d4LD0FCR1Tc062K_-1" vertex="1">
          <mxGeometry y="120" width="190" height="30" as="geometry" />
        </mxCell>
        <mxCell id="rtd8d4LD0FCR1Tc062K_-15" value="" style="shape=partialRectangle;connectable=0;fillColor=none;top=0;left=0;bottom=0;right=0;editable=1;overflow=hidden;whiteSpace=wrap;html=1;" parent="rtd8d4LD0FCR1Tc062K_-14" vertex="1">
          <mxGeometry width="30" height="30" as="geometry">
            <mxRectangle width="30" height="30" as="alternateBounds" />
          </mxGeometry>
        </mxCell>
        <mxCell id="rtd8d4LD0FCR1Tc062K_-16" value="phone" style="shape=partialRectangle;connectable=0;fillColor=none;top=0;left=0;bottom=0;right=0;align=left;spacingLeft=6;overflow=hidden;whiteSpace=wrap;html=1;" parent="rtd8d4LD0FCR1Tc062K_-14" vertex="1">
          <mxGeometry x="30" width="80" height="30" as="geometry">
            <mxRectangle width="80" height="30" as="alternateBounds" />
          </mxGeometry>
        </mxCell>
        <mxCell id="rtd8d4LD0FCR1Tc062K_-17" value="varchar" style="shape=partialRectangle;connectable=0;fillColor=none;top=0;left=0;bottom=0;right=0;align=left;spacingLeft=6;overflow=hidden;whiteSpace=wrap;html=1;" parent="rtd8d4LD0FCR1Tc062K_-14" vertex="1">
          <mxGeometry x="110" width="80" height="30" as="geometry">
            <mxRectangle width="80" height="30" as="alternateBounds" />
          </mxGeometry>
        </mxCell>
        <mxCell id="rtd8d4LD0FCR1Tc062K_-18" style="shape=tableRow;horizontal=0;startSize=0;swimlaneHead=0;swimlaneBody=0;fillColor=none;collapsible=0;dropTarget=0;points=[[0,0.5],[1,0.5]];portConstraint=eastwest;top=0;left=0;right=0;bottom=0;" parent="rtd8d4LD0FCR1Tc062K_-1" vertex="1">
          <mxGeometry y="150" width="190" height="30" as="geometry" />
        </mxCell>
        <mxCell id="rtd8d4LD0FCR1Tc062K_-19" style="shape=partialRectangle;connectable=0;fillColor=none;top=0;left=0;bottom=0;right=0;editable=1;overflow=hidden;whiteSpace=wrap;html=1;" parent="rtd8d4LD0FCR1Tc062K_-18" vertex="1">
          <mxGeometry width="30" height="30" as="geometry">
            <mxRectangle width="30" height="30" as="alternateBounds" />
          </mxGeometry>
        </mxCell>
        <mxCell id="rtd8d4LD0FCR1Tc062K_-20" value="email" style="shape=partialRectangle;connectable=0;fillColor=none;top=0;left=0;bottom=0;right=0;align=left;spacingLeft=6;overflow=hidden;whiteSpace=wrap;html=1;" parent="rtd8d4LD0FCR1Tc062K_-18" vertex="1">
          <mxGeometry x="30" width="80" height="30" as="geometry">
            <mxRectangle width="80" height="30" as="alternateBounds" />
          </mxGeometry>
        </mxCell>
        <mxCell id="rtd8d4LD0FCR1Tc062K_-21" value="varchar" style="shape=partialRectangle;connectable=0;fillColor=none;top=0;left=0;bottom=0;right=0;align=left;spacingLeft=6;overflow=hidden;whiteSpace=wrap;html=1;" parent="rtd8d4LD0FCR1Tc062K_-18" vertex="1">
          <mxGeometry x="110" width="80" height="30" as="geometry">
            <mxRectangle width="80" height="30" as="alternateBounds" />
          </mxGeometry>
        </mxCell>
      </root>
    </mxGraphModel>
  </diagram>
  <diagram id="SmpiEKu4fZcdBhkPowVv" name="DML">
    <mxGraphModel dx="5097" dy="144" grid="1" gridSize="10" guides="1" tooltips="1" connect="1" arrows="1" fold="1" page="1" pageScale="1" pageWidth="827" pageHeight="1169" math="0" shadow="0">
      <root>
        <mxCell id="0" />
        <mxCell id="1" parent="0" />
        <UserObject label="Техническая спецификация" link="https://docs.google.com/spreadsheets/d/1u_H4tV3w7XBNvifpU3XYxFWc21JCQUopbFD96ZJ7sTA/edit?usp=sharing" linkTarget="_blank" id="5Pp7cNScxvcOkZcTz7iS-1">
          <mxCell style="text;html=1;strokeColor=none;fillColor=none;whiteSpace=wrap;align=center;verticalAlign=middle;fontColor=#0000EE;fontStyle=5;fontSize=23;" parent="1" vertex="1">
            <mxGeometry x="-1511" y="1810" width="540" height="40" as="geometry" />
          </mxCell>
        </UserObject>
        <mxCell id="_WV_hwa61__gZBfDJEvx-1" value="" style="group" vertex="1" connectable="0" parent="1">
          <mxGeometry x="-1521" y="1233" width="560" height="524" as="geometry" />
        </mxCell>
        <mxCell id="2562VTzGqT5PNNvAGIp--2" value="Логическая модель данных Data Mart Layer" style="rounded=1;whiteSpace=wrap;html=1;glass=0;fillColor=none;verticalAlign=top;fontSize=18;strokeColor=#6666FF;strokeWidth=7;" vertex="1" parent="_WV_hwa61__gZBfDJEvx-1">
          <mxGeometry width="560" height="524" as="geometry" />
        </mxCell>
        <mxCell id="2562VTzGqT5PNNvAGIp--3" value="Факт выручки" style="swimlane;childLayout=stackLayout;horizontal=1;startSize=50;horizontalStack=0;rounded=1;fontSize=14;fontStyle=0;strokeWidth=2;resizeParent=0;resizeLast=1;shadow=0;dashed=0;align=center;arcSize=4;whiteSpace=wrap;html=1;strokeColor=#00CC66;" vertex="1" parent="_WV_hwa61__gZBfDJEvx-1">
          <mxGeometry x="20" y="260" width="190" height="120" as="geometry" />
        </mxCell>
        <mxCell id="2562VTzGqT5PNNvAGIp--4" value="&lt;u&gt;Код курса&lt;/u&gt;:&lt;span style=&quot;white-space: pre;&quot;&gt;&#x9;&lt;span style=&quot;white-space: pre;&quot;&gt;&#x9;&lt;/span&gt;&lt;span style=&quot;white-space: pre;&quot;&gt;&#x9;&lt;/span&gt;&lt;/span&gt;int&lt;div&gt;&lt;u&gt;Код месяца&lt;/u&gt;: &lt;span style=&quot;white-space: pre;&quot;&gt;&#x9;&lt;/span&gt;&lt;span style=&quot;white-space: pre;&quot;&gt;&#x9;&lt;/span&gt;&lt;span style=&quot;white-space: pre;&quot;&gt;&#x9;&lt;/span&gt;int&lt;/div&gt;&lt;div&gt;Выручка: &lt;span style=&quot;white-space: pre;&quot;&gt;&#x9;&lt;/span&gt;&lt;span style=&quot;white-space: pre;&quot;&gt;&#x9;&lt;span style=&quot;white-space: pre;&quot;&gt;&#x9;&lt;/span&gt;&lt;/span&gt;numeric&lt;/div&gt;&lt;div&gt;Количество&lt;span style=&quot;background-color: transparent; color: light-dark(rgb(0, 0, 0), rgb(255, 255, 255));&quot;&gt;&amp;nbsp;услуг&lt;span style=&quot;white-space: pre;&quot;&gt;&#x9;&lt;/span&gt;&amp;nbsp;&lt;span style=&quot;white-space: pre;&quot;&gt;&#x9;&lt;/span&gt;int&lt;/span&gt;&lt;/div&gt;" style="align=left;strokeColor=none;fillColor=none;spacingLeft=4;spacingRight=4;fontSize=12;verticalAlign=top;resizable=0;rotatable=0;part=1;html=1;whiteSpace=wrap;" vertex="1" parent="2562VTzGqT5PNNvAGIp--3">
          <mxGeometry y="50" width="190" height="70" as="geometry" />
        </mxCell>
        <mxCell id="2562VTzGqT5PNNvAGIp--5" value="Направления курсов" style="swimlane;childLayout=stackLayout;horizontal=1;startSize=50;horizontalStack=0;rounded=1;fontSize=14;fontStyle=0;strokeWidth=2;resizeParent=0;resizeLast=1;shadow=0;dashed=0;align=center;arcSize=4;whiteSpace=wrap;html=1;strokeColor=#0066CC;" vertex="1" parent="_WV_hwa61__gZBfDJEvx-1">
          <mxGeometry x="30" y="100" width="230" height="110" as="geometry" />
        </mxCell>
        <mxCell id="2562VTzGqT5PNNvAGIp--6" value="&lt;div style=&quot;text-align: justify;&quot;&gt;&lt;span style=&quot;background-color: transparent; color: light-dark(rgb(0, 0, 0), rgb(255, 255, 255));&quot;&gt;&lt;u&gt;Код направления&lt;/u&gt;:&lt;span style=&quot;white-space: pre;&quot;&gt;&#x9;&lt;span style=&quot;white-space: pre;&quot;&gt;&#x9;&lt;/span&gt;&lt;span style=&quot;white-space: pre;&quot;&gt;&#x9;&lt;/span&gt;&lt;span style=&quot;white-space: pre;&quot;&gt;&#x9;&lt;/span&gt;&lt;/span&gt;&lt;/span&gt;&lt;span style=&quot;background-color: transparent; color: light-dark(rgb(0, 0, 0), rgb(255, 255, 255));&quot;&gt;int&lt;/span&gt;&lt;/div&gt;&lt;div style=&quot;text-align: justify;&quot;&gt;Наименование направления: &lt;span style=&quot;white-space: pre;&quot;&gt;&#x9;&lt;/span&gt;string&lt;/div&gt;&lt;div style=&quot;text-align: justify;&quot;&gt;Описание направления: &lt;span style=&quot;white-space: pre;&quot;&gt;&#x9;&lt;/span&gt;&lt;span style=&quot;white-space: pre;&quot;&gt;&#x9;&lt;/span&gt;string&lt;/div&gt;" style="align=left;strokeColor=none;fillColor=none;spacingLeft=4;spacingRight=4;fontSize=12;verticalAlign=top;resizable=0;rotatable=0;part=1;html=1;whiteSpace=wrap;" vertex="1" parent="2562VTzGqT5PNNvAGIp--5">
          <mxGeometry y="50" width="230" height="60" as="geometry" />
        </mxCell>
        <mxCell id="2562VTzGqT5PNNvAGIp--7" value="Месяц" style="swimlane;childLayout=stackLayout;horizontal=1;startSize=50;horizontalStack=0;rounded=1;fontSize=14;fontStyle=0;strokeWidth=2;resizeParent=0;resizeLast=1;shadow=0;dashed=0;align=center;arcSize=4;whiteSpace=wrap;html=1;strokeColor=#0066CC;" vertex="1" parent="_WV_hwa61__gZBfDJEvx-1">
          <mxGeometry x="345" y="350" width="200" height="120" as="geometry" />
        </mxCell>
        <mxCell id="2562VTzGqT5PNNvAGIp--8" value="&lt;div style=&quot;text-align: justify;&quot;&gt;&lt;span style=&quot;background-color: transparent; color: light-dark(rgb(0, 0, 0), rgb(255, 255, 255));&quot;&gt;&lt;u&gt;Код месяца&lt;/u&gt;:&lt;span style=&quot;white-space: pre;&quot;&gt;&#x9;&lt;span style=&quot;white-space: pre;&quot;&gt;&#x9;&lt;/span&gt;&lt;span style=&quot;white-space: pre;&quot;&gt;&#x9;&lt;/span&gt;&lt;span style=&quot;white-space: pre;&quot;&gt;&#x9;&lt;/span&gt;&lt;/span&gt;&lt;/span&gt;&lt;span style=&quot;background-color: transparent; color: light-dark(rgb(0, 0, 0), rgb(255, 255, 255));&quot;&gt;int&lt;/span&gt;&lt;/div&gt;&lt;div style=&quot;text-align: justify;&quot;&gt;Наименование месяца: &lt;span style=&quot;white-space: pre;&quot;&gt;&#x9;&lt;/span&gt;string&lt;/div&gt;&lt;div style=&quot;text-align: justify;&quot;&gt;Номер месяца: &lt;span style=&quot;white-space: pre;&quot;&gt;&#x9;&lt;/span&gt;&lt;span style=&quot;white-space: pre;&quot;&gt;&#x9;&lt;span style=&quot;white-space: pre;&quot;&gt;&#x9;&lt;/span&gt;&lt;/span&gt;string&lt;/div&gt;&lt;div style=&quot;&quot;&gt;Год месяца: &lt;span style=&quot;white-space: pre;&quot;&gt;&#x9;&lt;/span&gt;&lt;span style=&quot;white-space: pre;&quot;&gt;&#x9;&lt;/span&gt;&lt;span style=&quot;white-space: pre;&quot;&gt;&#x9;&lt;/span&gt;&lt;span style=&quot;white-space: pre;&quot;&gt;&#x9;&lt;/span&gt;int&lt;/div&gt;" style="align=left;strokeColor=none;fillColor=none;spacingLeft=4;spacingRight=4;fontSize=12;verticalAlign=top;resizable=0;rotatable=0;part=1;html=1;whiteSpace=wrap;" vertex="1" parent="2562VTzGqT5PNNvAGIp--7">
          <mxGeometry y="50" width="200" height="70" as="geometry" />
        </mxCell>
        <mxCell id="2562VTzGqT5PNNvAGIp--9" value="" style="edgeStyle=orthogonalEdgeStyle;fontSize=12;html=1;endArrow=ERone;startArrow=ERzeroToMany;rounded=0;startFill=0;endFill=0;" edge="1" parent="_WV_hwa61__gZBfDJEvx-1" source="2562VTzGqT5PNNvAGIp--11" target="2562VTzGqT5PNNvAGIp--5">
          <mxGeometry width="100" height="100" relative="1" as="geometry">
            <mxPoint x="300.0044827586207" y="189.97000000000025" as="sourcePoint" />
            <mxPoint x="190.00448275862072" y="229.97000000000025" as="targetPoint" />
            <Array as="points">
              <mxPoint x="290" y="250" />
              <mxPoint x="290" y="160" />
            </Array>
          </mxGeometry>
        </mxCell>
        <mxCell id="2562VTzGqT5PNNvAGIp--10" value="" style="edgeStyle=orthogonalEdgeStyle;fontSize=12;html=1;endArrow=ERone;startArrow=ERzeroToMany;rounded=0;startFill=0;endFill=0;" edge="1" parent="_WV_hwa61__gZBfDJEvx-1" source="2562VTzGqT5PNNvAGIp--3" target="2562VTzGqT5PNNvAGIp--7">
          <mxGeometry width="100" height="100" relative="1" as="geometry">
            <mxPoint x="170" y="460" as="sourcePoint" />
            <mxPoint x="280" y="390" as="targetPoint" />
            <Array as="points">
              <mxPoint x="265" y="340" />
              <mxPoint x="265" y="390" />
            </Array>
          </mxGeometry>
        </mxCell>
        <mxCell id="2562VTzGqT5PNNvAGIp--11" value="Курс" style="swimlane;childLayout=stackLayout;horizontal=1;startSize=50;horizontalStack=0;rounded=1;fontSize=14;fontStyle=0;strokeWidth=2;resizeParent=0;resizeLast=1;shadow=0;dashed=0;align=center;arcSize=4;whiteSpace=wrap;html=1;strokeColor=#0066CC;" vertex="1" parent="_WV_hwa61__gZBfDJEvx-1">
          <mxGeometry x="345" y="200" width="190" height="120" as="geometry" />
        </mxCell>
        <mxCell id="2562VTzGqT5PNNvAGIp--12" value="&lt;div style=&quot;text-align: justify;&quot;&gt;&lt;u style=&quot;background-color: transparent; color: light-dark(rgb(0, 0, 0), rgb(255, 255, 255));&quot;&gt;Код курса&lt;/u&gt;&lt;span style=&quot;background-color: transparent; color: light-dark(rgb(0, 0, 0), rgb(255, 255, 255));&quot;&gt;: &lt;span style=&quot;white-space: pre;&quot;&gt;&#x9;&lt;/span&gt;&lt;span style=&quot;white-space: pre;&quot;&gt;&#x9;&lt;span style=&quot;white-space: pre;&quot;&gt;&#x9;&lt;span style=&quot;white-space: pre;&quot;&gt;&#x9;&lt;/span&gt;&lt;/span&gt;&lt;/span&gt;int&lt;/span&gt;&lt;/div&gt;&lt;div style=&quot;text-align: justify;&quot;&gt;Стоимость:&amp;nbsp;&lt;span style=&quot;white-space: pre;&quot;&gt;&#x9;&lt;span style=&quot;white-space: pre;&quot;&gt;&#x9;&lt;span style=&quot;white-space: pre;&quot;&gt;&#x9;&lt;/span&gt;&lt;/span&gt;&lt;/span&gt;numeric&lt;/div&gt;&lt;div style=&quot;text-align: justify;&quot;&gt;&lt;span style=&quot;background-color: transparent; color: light-dark(rgb(0, 0, 0), rgb(255, 255, 255));&quot;&gt;Наименование продукта:&amp;nbsp; string&lt;/span&gt;&lt;/div&gt;&lt;div style=&quot;text-align: justify;&quot;&gt;&lt;span style=&quot;background-color: transparent; color: light-dark(rgb(0, 0, 0), rgb(255, 255, 255));&quot;&gt;Код направления курса: &lt;span style=&quot;white-space: pre;&quot;&gt;&#x9;&lt;/span&gt;int&lt;/span&gt;&lt;/div&gt;" style="align=left;strokeColor=none;fillColor=none;spacingLeft=4;spacingRight=4;fontSize=12;verticalAlign=top;resizable=0;rotatable=0;part=1;html=1;whiteSpace=wrap;" vertex="1" parent="2562VTzGqT5PNNvAGIp--11">
          <mxGeometry y="50" width="190" height="70" as="geometry" />
        </mxCell>
        <mxCell id="2562VTzGqT5PNNvAGIp--13" value="" style="edgeStyle=orthogonalEdgeStyle;fontSize=12;html=1;endArrow=ERzeroToMany;startArrow=ERone;rounded=0;startFill=0;endFill=0;" edge="1" parent="_WV_hwa61__gZBfDJEvx-1" source="2562VTzGqT5PNNvAGIp--11" target="2562VTzGqT5PNNvAGIp--3">
          <mxGeometry width="100" height="100" relative="1" as="geometry">
            <mxPoint x="350" y="290" as="sourcePoint" />
            <mxPoint x="290" y="140" as="targetPoint" />
            <Array as="points">
              <mxPoint x="240" y="280" />
              <mxPoint x="240" y="280" />
            </Array>
          </mxGeometry>
        </mxCell>
        <mxCell id="_WV_hwa61__gZBfDJEvx-2" value="" style="group" vertex="1" connectable="0" parent="1">
          <mxGeometry x="-778" y="1210" width="730" height="570" as="geometry" />
        </mxCell>
        <mxCell id="2562VTzGqT5PNNvAGIp--15" value="&lt;span style=&quot;font-size: 18px;&quot;&gt;Физическая модель Data Mart Layer&lt;/span&gt;" style="rounded=1;whiteSpace=wrap;html=1;fillColor=none;verticalAlign=top;strokeWidth=7;strokeColor=#6666FF;" vertex="1" parent="_WV_hwa61__gZBfDJEvx-2">
          <mxGeometry width="730" height="570" as="geometry" />
        </mxCell>
        <mxCell id="2562VTzGqT5PNNvAGIp--16" value="Course_field_dim" style="shape=table;startSize=30;container=1;collapsible=1;childLayout=tableLayout;fixedRows=1;rowLines=0;fontStyle=1;align=center;resizeLast=1;html=1;" vertex="1" parent="_WV_hwa61__gZBfDJEvx-2">
          <mxGeometry x="420" y="40" width="240" height="120" as="geometry" />
        </mxCell>
        <mxCell id="2562VTzGqT5PNNvAGIp--17" value="" style="shape=tableRow;horizontal=0;startSize=0;swimlaneHead=0;swimlaneBody=0;fillColor=none;collapsible=0;dropTarget=0;points=[[0,0.5],[1,0.5]];portConstraint=eastwest;top=0;left=0;right=0;bottom=1;" vertex="1" parent="2562VTzGqT5PNNvAGIp--16">
          <mxGeometry y="30" width="240" height="30" as="geometry" />
        </mxCell>
        <mxCell id="2562VTzGqT5PNNvAGIp--18" value="PK" style="shape=partialRectangle;connectable=0;fillColor=none;top=0;left=0;bottom=0;right=0;fontStyle=1;overflow=hidden;whiteSpace=wrap;html=1;" vertex="1" parent="2562VTzGqT5PNNvAGIp--17">
          <mxGeometry width="30" height="30" as="geometry">
            <mxRectangle width="30" height="30" as="alternateBounds" />
          </mxGeometry>
        </mxCell>
        <mxCell id="2562VTzGqT5PNNvAGIp--19" value="course_field_id" style="shape=partialRectangle;connectable=0;fillColor=none;top=0;left=0;bottom=0;right=0;align=left;spacingLeft=6;fontStyle=5;overflow=hidden;whiteSpace=wrap;html=1;" vertex="1" parent="2562VTzGqT5PNNvAGIp--17">
          <mxGeometry x="30" width="150" height="30" as="geometry">
            <mxRectangle width="150" height="30" as="alternateBounds" />
          </mxGeometry>
        </mxCell>
        <mxCell id="2562VTzGqT5PNNvAGIp--20" value="int" style="shape=partialRectangle;connectable=0;fillColor=none;top=0;left=0;bottom=0;right=0;align=left;spacingLeft=6;fontStyle=5;overflow=hidden;whiteSpace=wrap;html=1;" vertex="1" parent="2562VTzGqT5PNNvAGIp--17">
          <mxGeometry x="180" width="60" height="30" as="geometry">
            <mxRectangle width="60" height="30" as="alternateBounds" />
          </mxGeometry>
        </mxCell>
        <mxCell id="2562VTzGqT5PNNvAGIp--21" value="" style="shape=tableRow;horizontal=0;startSize=0;swimlaneHead=0;swimlaneBody=0;fillColor=none;collapsible=0;dropTarget=0;points=[[0,0.5],[1,0.5]];portConstraint=eastwest;top=0;left=0;right=0;bottom=0;" vertex="1" parent="2562VTzGqT5PNNvAGIp--16">
          <mxGeometry y="60" width="240" height="30" as="geometry" />
        </mxCell>
        <mxCell id="2562VTzGqT5PNNvAGIp--22" value="" style="shape=partialRectangle;connectable=0;fillColor=none;top=0;left=0;bottom=0;right=0;editable=1;overflow=hidden;whiteSpace=wrap;html=1;" vertex="1" parent="2562VTzGqT5PNNvAGIp--21">
          <mxGeometry width="30" height="30" as="geometry">
            <mxRectangle width="30" height="30" as="alternateBounds" />
          </mxGeometry>
        </mxCell>
        <mxCell id="2562VTzGqT5PNNvAGIp--23" value="course_field_name" style="shape=partialRectangle;connectable=0;fillColor=none;top=0;left=0;bottom=0;right=0;align=left;spacingLeft=6;overflow=hidden;whiteSpace=wrap;html=1;" vertex="1" parent="2562VTzGqT5PNNvAGIp--21">
          <mxGeometry x="30" width="150" height="30" as="geometry">
            <mxRectangle width="150" height="30" as="alternateBounds" />
          </mxGeometry>
        </mxCell>
        <mxCell id="2562VTzGqT5PNNvAGIp--24" value="varchar" style="shape=partialRectangle;connectable=0;fillColor=none;top=0;left=0;bottom=0;right=0;align=left;spacingLeft=6;overflow=hidden;whiteSpace=wrap;html=1;" vertex="1" parent="2562VTzGqT5PNNvAGIp--21">
          <mxGeometry x="180" width="60" height="30" as="geometry">
            <mxRectangle width="60" height="30" as="alternateBounds" />
          </mxGeometry>
        </mxCell>
        <mxCell id="2562VTzGqT5PNNvAGIp--25" value="" style="shape=tableRow;horizontal=0;startSize=0;swimlaneHead=0;swimlaneBody=0;fillColor=none;collapsible=0;dropTarget=0;points=[[0,0.5],[1,0.5]];portConstraint=eastwest;top=0;left=0;right=0;bottom=0;" vertex="1" parent="2562VTzGqT5PNNvAGIp--16">
          <mxGeometry y="90" width="240" height="30" as="geometry" />
        </mxCell>
        <mxCell id="2562VTzGqT5PNNvAGIp--26" value="" style="shape=partialRectangle;connectable=0;fillColor=none;top=0;left=0;bottom=0;right=0;editable=1;overflow=hidden;whiteSpace=wrap;html=1;" vertex="1" parent="2562VTzGqT5PNNvAGIp--25">
          <mxGeometry width="30" height="30" as="geometry">
            <mxRectangle width="30" height="30" as="alternateBounds" />
          </mxGeometry>
        </mxCell>
        <mxCell id="2562VTzGqT5PNNvAGIp--27" value="course_field_desc" style="shape=partialRectangle;connectable=0;fillColor=none;top=0;left=0;bottom=0;right=0;align=left;spacingLeft=6;overflow=hidden;whiteSpace=wrap;html=1;" vertex="1" parent="2562VTzGqT5PNNvAGIp--25">
          <mxGeometry x="30" width="150" height="30" as="geometry">
            <mxRectangle width="150" height="30" as="alternateBounds" />
          </mxGeometry>
        </mxCell>
        <mxCell id="2562VTzGqT5PNNvAGIp--28" value="varchar" style="shape=partialRectangle;connectable=0;fillColor=none;top=0;left=0;bottom=0;right=0;align=left;spacingLeft=6;overflow=hidden;whiteSpace=wrap;html=1;" vertex="1" parent="2562VTzGqT5PNNvAGIp--25">
          <mxGeometry x="180" width="60" height="30" as="geometry">
            <mxRectangle width="60" height="30" as="alternateBounds" />
          </mxGeometry>
        </mxCell>
        <mxCell id="2562VTzGqT5PNNvAGIp--29" value="Course_dim" style="shape=table;startSize=30;container=1;collapsible=1;childLayout=tableLayout;fixedRows=1;rowLines=0;fontStyle=1;align=center;resizeLast=1;html=1;" vertex="1" parent="_WV_hwa61__gZBfDJEvx-2">
          <mxGeometry x="420" y="192" width="240" height="150" as="geometry" />
        </mxCell>
        <mxCell id="2562VTzGqT5PNNvAGIp--30" value="" style="shape=tableRow;horizontal=0;startSize=0;swimlaneHead=0;swimlaneBody=0;fillColor=none;collapsible=0;dropTarget=0;points=[[0,0.5],[1,0.5]];portConstraint=eastwest;top=0;left=0;right=0;bottom=1;" vertex="1" parent="2562VTzGqT5PNNvAGIp--29">
          <mxGeometry y="30" width="240" height="30" as="geometry" />
        </mxCell>
        <mxCell id="2562VTzGqT5PNNvAGIp--31" value="PK" style="shape=partialRectangle;connectable=0;fillColor=none;top=0;left=0;bottom=0;right=0;fontStyle=1;overflow=hidden;whiteSpace=wrap;html=1;" vertex="1" parent="2562VTzGqT5PNNvAGIp--30">
          <mxGeometry width="30" height="30" as="geometry">
            <mxRectangle width="30" height="30" as="alternateBounds" />
          </mxGeometry>
        </mxCell>
        <mxCell id="2562VTzGqT5PNNvAGIp--32" value="course_id" style="shape=partialRectangle;connectable=0;fillColor=none;top=0;left=0;bottom=0;right=0;align=left;spacingLeft=6;fontStyle=5;overflow=hidden;whiteSpace=wrap;html=1;" vertex="1" parent="2562VTzGqT5PNNvAGIp--30">
          <mxGeometry x="30" width="150" height="30" as="geometry">
            <mxRectangle width="150" height="30" as="alternateBounds" />
          </mxGeometry>
        </mxCell>
        <mxCell id="2562VTzGqT5PNNvAGIp--33" value="int" style="shape=partialRectangle;connectable=0;fillColor=none;top=0;left=0;bottom=0;right=0;align=left;spacingLeft=6;fontStyle=5;overflow=hidden;whiteSpace=wrap;html=1;" vertex="1" parent="2562VTzGqT5PNNvAGIp--30">
          <mxGeometry x="180" width="60" height="30" as="geometry">
            <mxRectangle width="60" height="30" as="alternateBounds" />
          </mxGeometry>
        </mxCell>
        <mxCell id="2562VTzGqT5PNNvAGIp--34" value="" style="shape=tableRow;horizontal=0;startSize=0;swimlaneHead=0;swimlaneBody=0;fillColor=none;collapsible=0;dropTarget=0;points=[[0,0.5],[1,0.5]];portConstraint=eastwest;top=0;left=0;right=0;bottom=0;" vertex="1" parent="2562VTzGqT5PNNvAGIp--29">
          <mxGeometry y="60" width="240" height="30" as="geometry" />
        </mxCell>
        <mxCell id="2562VTzGqT5PNNvAGIp--35" value="" style="shape=partialRectangle;connectable=0;fillColor=none;top=0;left=0;bottom=0;right=0;editable=1;overflow=hidden;whiteSpace=wrap;html=1;" vertex="1" parent="2562VTzGqT5PNNvAGIp--34">
          <mxGeometry width="30" height="30" as="geometry">
            <mxRectangle width="30" height="30" as="alternateBounds" />
          </mxGeometry>
        </mxCell>
        <mxCell id="2562VTzGqT5PNNvAGIp--36" value="course_name" style="shape=partialRectangle;connectable=0;fillColor=none;top=0;left=0;bottom=0;right=0;align=left;spacingLeft=6;overflow=hidden;whiteSpace=wrap;html=1;" vertex="1" parent="2562VTzGqT5PNNvAGIp--34">
          <mxGeometry x="30" width="150" height="30" as="geometry">
            <mxRectangle width="150" height="30" as="alternateBounds" />
          </mxGeometry>
        </mxCell>
        <mxCell id="2562VTzGqT5PNNvAGIp--37" value="varchar" style="shape=partialRectangle;connectable=0;fillColor=none;top=0;left=0;bottom=0;right=0;align=left;spacingLeft=6;overflow=hidden;whiteSpace=wrap;html=1;" vertex="1" parent="2562VTzGqT5PNNvAGIp--34">
          <mxGeometry x="180" width="60" height="30" as="geometry">
            <mxRectangle width="60" height="30" as="alternateBounds" />
          </mxGeometry>
        </mxCell>
        <mxCell id="2562VTzGqT5PNNvAGIp--38" value="" style="shape=tableRow;horizontal=0;startSize=0;swimlaneHead=0;swimlaneBody=0;fillColor=none;collapsible=0;dropTarget=0;points=[[0,0.5],[1,0.5]];portConstraint=eastwest;top=0;left=0;right=0;bottom=0;" vertex="1" parent="2562VTzGqT5PNNvAGIp--29">
          <mxGeometry y="90" width="240" height="30" as="geometry" />
        </mxCell>
        <mxCell id="2562VTzGqT5PNNvAGIp--39" value="FK" style="shape=partialRectangle;connectable=0;fillColor=none;top=0;left=0;bottom=0;right=0;editable=1;overflow=hidden;whiteSpace=wrap;html=1;" vertex="1" parent="2562VTzGqT5PNNvAGIp--38">
          <mxGeometry width="30" height="30" as="geometry">
            <mxRectangle width="30" height="30" as="alternateBounds" />
          </mxGeometry>
        </mxCell>
        <mxCell id="2562VTzGqT5PNNvAGIp--40" value="course_field_id" style="shape=partialRectangle;connectable=0;fillColor=none;top=0;left=0;bottom=0;right=0;align=left;spacingLeft=6;overflow=hidden;whiteSpace=wrap;html=1;" vertex="1" parent="2562VTzGqT5PNNvAGIp--38">
          <mxGeometry x="30" width="150" height="30" as="geometry">
            <mxRectangle width="150" height="30" as="alternateBounds" />
          </mxGeometry>
        </mxCell>
        <mxCell id="2562VTzGqT5PNNvAGIp--41" value="inr" style="shape=partialRectangle;connectable=0;fillColor=none;top=0;left=0;bottom=0;right=0;align=left;spacingLeft=6;overflow=hidden;whiteSpace=wrap;html=1;" vertex="1" parent="2562VTzGqT5PNNvAGIp--38">
          <mxGeometry x="180" width="60" height="30" as="geometry">
            <mxRectangle width="60" height="30" as="alternateBounds" />
          </mxGeometry>
        </mxCell>
        <mxCell id="2562VTzGqT5PNNvAGIp--42" value="" style="shape=tableRow;horizontal=0;startSize=0;swimlaneHead=0;swimlaneBody=0;fillColor=none;collapsible=0;dropTarget=0;points=[[0,0.5],[1,0.5]];portConstraint=eastwest;top=0;left=0;right=0;bottom=0;" vertex="1" parent="2562VTzGqT5PNNvAGIp--29">
          <mxGeometry y="120" width="240" height="30" as="geometry" />
        </mxCell>
        <mxCell id="2562VTzGqT5PNNvAGIp--43" value="" style="shape=partialRectangle;connectable=0;fillColor=none;top=0;left=0;bottom=0;right=0;editable=1;overflow=hidden;whiteSpace=wrap;html=1;" vertex="1" parent="2562VTzGqT5PNNvAGIp--42">
          <mxGeometry width="30" height="30" as="geometry">
            <mxRectangle width="30" height="30" as="alternateBounds" />
          </mxGeometry>
        </mxCell>
        <mxCell id="2562VTzGqT5PNNvAGIp--44" value="net_cost" style="shape=partialRectangle;connectable=0;fillColor=none;top=0;left=0;bottom=0;right=0;align=left;spacingLeft=6;overflow=hidden;whiteSpace=wrap;html=1;" vertex="1" parent="2562VTzGqT5PNNvAGIp--42">
          <mxGeometry x="30" width="150" height="30" as="geometry">
            <mxRectangle width="150" height="30" as="alternateBounds" />
          </mxGeometry>
        </mxCell>
        <mxCell id="2562VTzGqT5PNNvAGIp--45" value="numeric" style="shape=partialRectangle;connectable=0;fillColor=none;top=0;left=0;bottom=0;right=0;align=left;spacingLeft=6;overflow=hidden;whiteSpace=wrap;html=1;" vertex="1" parent="2562VTzGqT5PNNvAGIp--42">
          <mxGeometry x="180" width="60" height="30" as="geometry">
            <mxRectangle width="60" height="30" as="alternateBounds" />
          </mxGeometry>
        </mxCell>
        <mxCell id="2562VTzGqT5PNNvAGIp--46" value="Month_dim" style="shape=table;startSize=30;container=1;collapsible=1;childLayout=tableLayout;fixedRows=1;rowLines=0;fontStyle=1;align=center;resizeLast=1;html=1;" vertex="1" parent="_WV_hwa61__gZBfDJEvx-2">
          <mxGeometry x="420" y="373" width="240" height="150" as="geometry" />
        </mxCell>
        <mxCell id="2562VTzGqT5PNNvAGIp--47" value="" style="shape=tableRow;horizontal=0;startSize=0;swimlaneHead=0;swimlaneBody=0;fillColor=none;collapsible=0;dropTarget=0;points=[[0,0.5],[1,0.5]];portConstraint=eastwest;top=0;left=0;right=0;bottom=1;" vertex="1" parent="2562VTzGqT5PNNvAGIp--46">
          <mxGeometry y="30" width="240" height="30" as="geometry" />
        </mxCell>
        <mxCell id="2562VTzGqT5PNNvAGIp--48" value="PK" style="shape=partialRectangle;connectable=0;fillColor=none;top=0;left=0;bottom=0;right=0;fontStyle=1;overflow=hidden;whiteSpace=wrap;html=1;" vertex="1" parent="2562VTzGqT5PNNvAGIp--47">
          <mxGeometry width="30" height="30" as="geometry">
            <mxRectangle width="30" height="30" as="alternateBounds" />
          </mxGeometry>
        </mxCell>
        <mxCell id="2562VTzGqT5PNNvAGIp--49" value="month_id" style="shape=partialRectangle;connectable=0;fillColor=none;top=0;left=0;bottom=0;right=0;align=left;spacingLeft=6;fontStyle=5;overflow=hidden;whiteSpace=wrap;html=1;" vertex="1" parent="2562VTzGqT5PNNvAGIp--47">
          <mxGeometry x="30" width="150" height="30" as="geometry">
            <mxRectangle width="150" height="30" as="alternateBounds" />
          </mxGeometry>
        </mxCell>
        <mxCell id="2562VTzGqT5PNNvAGIp--50" value="int" style="shape=partialRectangle;connectable=0;fillColor=none;top=0;left=0;bottom=0;right=0;align=left;spacingLeft=6;fontStyle=5;overflow=hidden;whiteSpace=wrap;html=1;" vertex="1" parent="2562VTzGqT5PNNvAGIp--47">
          <mxGeometry x="180" width="60" height="30" as="geometry">
            <mxRectangle width="60" height="30" as="alternateBounds" />
          </mxGeometry>
        </mxCell>
        <mxCell id="2562VTzGqT5PNNvAGIp--51" value="" style="shape=tableRow;horizontal=0;startSize=0;swimlaneHead=0;swimlaneBody=0;fillColor=none;collapsible=0;dropTarget=0;points=[[0,0.5],[1,0.5]];portConstraint=eastwest;top=0;left=0;right=0;bottom=0;" vertex="1" parent="2562VTzGqT5PNNvAGIp--46">
          <mxGeometry y="60" width="240" height="30" as="geometry" />
        </mxCell>
        <mxCell id="2562VTzGqT5PNNvAGIp--52" value="" style="shape=partialRectangle;connectable=0;fillColor=none;top=0;left=0;bottom=0;right=0;editable=1;overflow=hidden;whiteSpace=wrap;html=1;" vertex="1" parent="2562VTzGqT5PNNvAGIp--51">
          <mxGeometry width="30" height="30" as="geometry">
            <mxRectangle width="30" height="30" as="alternateBounds" />
          </mxGeometry>
        </mxCell>
        <mxCell id="2562VTzGqT5PNNvAGIp--53" value="month_name" style="shape=partialRectangle;connectable=0;fillColor=none;top=0;left=0;bottom=0;right=0;align=left;spacingLeft=6;overflow=hidden;whiteSpace=wrap;html=1;" vertex="1" parent="2562VTzGqT5PNNvAGIp--51">
          <mxGeometry x="30" width="150" height="30" as="geometry">
            <mxRectangle width="150" height="30" as="alternateBounds" />
          </mxGeometry>
        </mxCell>
        <mxCell id="2562VTzGqT5PNNvAGIp--54" value="varchar" style="shape=partialRectangle;connectable=0;fillColor=none;top=0;left=0;bottom=0;right=0;align=left;spacingLeft=6;overflow=hidden;whiteSpace=wrap;html=1;" vertex="1" parent="2562VTzGqT5PNNvAGIp--51">
          <mxGeometry x="180" width="60" height="30" as="geometry">
            <mxRectangle width="60" height="30" as="alternateBounds" />
          </mxGeometry>
        </mxCell>
        <mxCell id="2562VTzGqT5PNNvAGIp--55" value="" style="shape=tableRow;horizontal=0;startSize=0;swimlaneHead=0;swimlaneBody=0;fillColor=none;collapsible=0;dropTarget=0;points=[[0,0.5],[1,0.5]];portConstraint=eastwest;top=0;left=0;right=0;bottom=0;" vertex="1" parent="2562VTzGqT5PNNvAGIp--46">
          <mxGeometry y="90" width="240" height="30" as="geometry" />
        </mxCell>
        <mxCell id="2562VTzGqT5PNNvAGIp--56" value="" style="shape=partialRectangle;connectable=0;fillColor=none;top=0;left=0;bottom=0;right=0;editable=1;overflow=hidden;whiteSpace=wrap;html=1;" vertex="1" parent="2562VTzGqT5PNNvAGIp--55">
          <mxGeometry width="30" height="30" as="geometry">
            <mxRectangle width="30" height="30" as="alternateBounds" />
          </mxGeometry>
        </mxCell>
        <mxCell id="2562VTzGqT5PNNvAGIp--57" value="month_number" style="shape=partialRectangle;connectable=0;fillColor=none;top=0;left=0;bottom=0;right=0;align=left;spacingLeft=6;overflow=hidden;whiteSpace=wrap;html=1;" vertex="1" parent="2562VTzGqT5PNNvAGIp--55">
          <mxGeometry x="30" width="150" height="30" as="geometry">
            <mxRectangle width="150" height="30" as="alternateBounds" />
          </mxGeometry>
        </mxCell>
        <mxCell id="2562VTzGqT5PNNvAGIp--58" value="int" style="shape=partialRectangle;connectable=0;fillColor=none;top=0;left=0;bottom=0;right=0;align=left;spacingLeft=6;overflow=hidden;whiteSpace=wrap;html=1;" vertex="1" parent="2562VTzGqT5PNNvAGIp--55">
          <mxGeometry x="180" width="60" height="30" as="geometry">
            <mxRectangle width="60" height="30" as="alternateBounds" />
          </mxGeometry>
        </mxCell>
        <mxCell id="2562VTzGqT5PNNvAGIp--59" value="" style="shape=tableRow;horizontal=0;startSize=0;swimlaneHead=0;swimlaneBody=0;fillColor=none;collapsible=0;dropTarget=0;points=[[0,0.5],[1,0.5]];portConstraint=eastwest;top=0;left=0;right=0;bottom=0;" vertex="1" parent="2562VTzGqT5PNNvAGIp--46">
          <mxGeometry y="120" width="240" height="30" as="geometry" />
        </mxCell>
        <mxCell id="2562VTzGqT5PNNvAGIp--60" value="" style="shape=partialRectangle;connectable=0;fillColor=none;top=0;left=0;bottom=0;right=0;editable=1;overflow=hidden;whiteSpace=wrap;html=1;" vertex="1" parent="2562VTzGqT5PNNvAGIp--59">
          <mxGeometry width="30" height="30" as="geometry">
            <mxRectangle width="30" height="30" as="alternateBounds" />
          </mxGeometry>
        </mxCell>
        <mxCell id="2562VTzGqT5PNNvAGIp--61" value="month_year" style="shape=partialRectangle;connectable=0;fillColor=none;top=0;left=0;bottom=0;right=0;align=left;spacingLeft=6;overflow=hidden;whiteSpace=wrap;html=1;" vertex="1" parent="2562VTzGqT5PNNvAGIp--59">
          <mxGeometry x="30" width="150" height="30" as="geometry">
            <mxRectangle width="150" height="30" as="alternateBounds" />
          </mxGeometry>
        </mxCell>
        <mxCell id="2562VTzGqT5PNNvAGIp--62" value="int" style="shape=partialRectangle;connectable=0;fillColor=none;top=0;left=0;bottom=0;right=0;align=left;spacingLeft=6;overflow=hidden;whiteSpace=wrap;html=1;" vertex="1" parent="2562VTzGqT5PNNvAGIp--59">
          <mxGeometry x="180" width="60" height="30" as="geometry">
            <mxRectangle width="60" height="30" as="alternateBounds" />
          </mxGeometry>
        </mxCell>
        <mxCell id="2562VTzGqT5PNNvAGIp--63" value="Sales_fact" style="shape=table;startSize=30;container=1;collapsible=1;childLayout=tableLayout;fixedRows=1;rowLines=0;fontStyle=1;align=center;resizeLast=1;html=1;" vertex="1" parent="_WV_hwa61__gZBfDJEvx-2">
          <mxGeometry x="30" y="206" width="240" height="180" as="geometry" />
        </mxCell>
        <mxCell id="2562VTzGqT5PNNvAGIp--64" value="" style="shape=tableRow;horizontal=0;startSize=0;swimlaneHead=0;swimlaneBody=0;fillColor=none;collapsible=0;dropTarget=0;points=[[0,0.5],[1,0.5]];portConstraint=eastwest;top=0;left=0;right=0;bottom=1;" vertex="1" parent="2562VTzGqT5PNNvAGIp--63">
          <mxGeometry y="30" width="240" height="30" as="geometry" />
        </mxCell>
        <mxCell id="2562VTzGqT5PNNvAGIp--65" value="PK" style="shape=partialRectangle;connectable=0;fillColor=none;top=0;left=0;bottom=0;right=0;fontStyle=1;overflow=hidden;whiteSpace=wrap;html=1;" vertex="1" parent="2562VTzGqT5PNNvAGIp--64">
          <mxGeometry width="30" height="30" as="geometry">
            <mxRectangle width="30" height="30" as="alternateBounds" />
          </mxGeometry>
        </mxCell>
        <mxCell id="2562VTzGqT5PNNvAGIp--66" value="sales_fact_id" style="shape=partialRectangle;connectable=0;fillColor=none;top=0;left=0;bottom=0;right=0;align=left;spacingLeft=6;fontStyle=5;overflow=hidden;whiteSpace=wrap;html=1;" vertex="1" parent="2562VTzGqT5PNNvAGIp--64">
          <mxGeometry x="30" width="150" height="30" as="geometry">
            <mxRectangle width="150" height="30" as="alternateBounds" />
          </mxGeometry>
        </mxCell>
        <mxCell id="2562VTzGqT5PNNvAGIp--67" value="int" style="shape=partialRectangle;connectable=0;fillColor=none;top=0;left=0;bottom=0;right=0;align=left;spacingLeft=6;fontStyle=5;overflow=hidden;whiteSpace=wrap;html=1;" vertex="1" parent="2562VTzGqT5PNNvAGIp--64">
          <mxGeometry x="180" width="60" height="30" as="geometry">
            <mxRectangle width="60" height="30" as="alternateBounds" />
          </mxGeometry>
        </mxCell>
        <mxCell id="2562VTzGqT5PNNvAGIp--68" value="" style="shape=tableRow;horizontal=0;startSize=0;swimlaneHead=0;swimlaneBody=0;fillColor=none;collapsible=0;dropTarget=0;points=[[0,0.5],[1,0.5]];portConstraint=eastwest;top=0;left=0;right=0;bottom=0;" vertex="1" parent="2562VTzGqT5PNNvAGIp--63">
          <mxGeometry y="60" width="240" height="30" as="geometry" />
        </mxCell>
        <mxCell id="2562VTzGqT5PNNvAGIp--69" value="FK" style="shape=partialRectangle;connectable=0;fillColor=none;top=0;left=0;bottom=0;right=0;editable=1;overflow=hidden;whiteSpace=wrap;html=1;" vertex="1" parent="2562VTzGqT5PNNvAGIp--68">
          <mxGeometry width="30" height="30" as="geometry">
            <mxRectangle width="30" height="30" as="alternateBounds" />
          </mxGeometry>
        </mxCell>
        <mxCell id="2562VTzGqT5PNNvAGIp--70" value="course_id" style="shape=partialRectangle;connectable=0;fillColor=none;top=0;left=0;bottom=0;right=0;align=left;spacingLeft=6;overflow=hidden;whiteSpace=wrap;html=1;" vertex="1" parent="2562VTzGqT5PNNvAGIp--68">
          <mxGeometry x="30" width="150" height="30" as="geometry">
            <mxRectangle width="150" height="30" as="alternateBounds" />
          </mxGeometry>
        </mxCell>
        <mxCell id="2562VTzGqT5PNNvAGIp--71" value="int" style="shape=partialRectangle;connectable=0;fillColor=none;top=0;left=0;bottom=0;right=0;align=left;spacingLeft=6;overflow=hidden;whiteSpace=wrap;html=1;" vertex="1" parent="2562VTzGqT5PNNvAGIp--68">
          <mxGeometry x="180" width="60" height="30" as="geometry">
            <mxRectangle width="60" height="30" as="alternateBounds" />
          </mxGeometry>
        </mxCell>
        <mxCell id="2562VTzGqT5PNNvAGIp--72" value="" style="shape=tableRow;horizontal=0;startSize=0;swimlaneHead=0;swimlaneBody=0;fillColor=none;collapsible=0;dropTarget=0;points=[[0,0.5],[1,0.5]];portConstraint=eastwest;top=0;left=0;right=0;bottom=0;" vertex="1" parent="2562VTzGqT5PNNvAGIp--63">
          <mxGeometry y="90" width="240" height="30" as="geometry" />
        </mxCell>
        <mxCell id="2562VTzGqT5PNNvAGIp--73" value="FK" style="shape=partialRectangle;connectable=0;fillColor=none;top=0;left=0;bottom=0;right=0;editable=1;overflow=hidden;whiteSpace=wrap;html=1;" vertex="1" parent="2562VTzGqT5PNNvAGIp--72">
          <mxGeometry width="30" height="30" as="geometry">
            <mxRectangle width="30" height="30" as="alternateBounds" />
          </mxGeometry>
        </mxCell>
        <mxCell id="2562VTzGqT5PNNvAGIp--74" value="month_id" style="shape=partialRectangle;connectable=0;fillColor=none;top=0;left=0;bottom=0;right=0;align=left;spacingLeft=6;overflow=hidden;whiteSpace=wrap;html=1;" vertex="1" parent="2562VTzGqT5PNNvAGIp--72">
          <mxGeometry x="30" width="150" height="30" as="geometry">
            <mxRectangle width="150" height="30" as="alternateBounds" />
          </mxGeometry>
        </mxCell>
        <mxCell id="2562VTzGqT5PNNvAGIp--75" value="int" style="shape=partialRectangle;connectable=0;fillColor=none;top=0;left=0;bottom=0;right=0;align=left;spacingLeft=6;overflow=hidden;whiteSpace=wrap;html=1;" vertex="1" parent="2562VTzGqT5PNNvAGIp--72">
          <mxGeometry x="180" width="60" height="30" as="geometry">
            <mxRectangle width="60" height="30" as="alternateBounds" />
          </mxGeometry>
        </mxCell>
        <mxCell id="2562VTzGqT5PNNvAGIp--76" value="" style="shape=tableRow;horizontal=0;startSize=0;swimlaneHead=0;swimlaneBody=0;fillColor=none;collapsible=0;dropTarget=0;points=[[0,0.5],[1,0.5]];portConstraint=eastwest;top=0;left=0;right=0;bottom=0;" vertex="1" parent="2562VTzGqT5PNNvAGIp--63">
          <mxGeometry y="120" width="240" height="30" as="geometry" />
        </mxCell>
        <mxCell id="2562VTzGqT5PNNvAGIp--77" value="" style="shape=partialRectangle;connectable=0;fillColor=none;top=0;left=0;bottom=0;right=0;editable=1;overflow=hidden;whiteSpace=wrap;html=1;" vertex="1" parent="2562VTzGqT5PNNvAGIp--76">
          <mxGeometry width="30" height="30" as="geometry">
            <mxRectangle width="30" height="30" as="alternateBounds" />
          </mxGeometry>
        </mxCell>
        <mxCell id="2562VTzGqT5PNNvAGIp--78" value="revenue" style="shape=partialRectangle;connectable=0;fillColor=none;top=0;left=0;bottom=0;right=0;align=left;spacingLeft=6;overflow=hidden;whiteSpace=wrap;html=1;" vertex="1" parent="2562VTzGqT5PNNvAGIp--76">
          <mxGeometry x="30" width="150" height="30" as="geometry">
            <mxRectangle width="150" height="30" as="alternateBounds" />
          </mxGeometry>
        </mxCell>
        <mxCell id="2562VTzGqT5PNNvAGIp--79" value="numeric" style="shape=partialRectangle;connectable=0;fillColor=none;top=0;left=0;bottom=0;right=0;align=left;spacingLeft=6;overflow=hidden;whiteSpace=wrap;html=1;" vertex="1" parent="2562VTzGqT5PNNvAGIp--76">
          <mxGeometry x="180" width="60" height="30" as="geometry">
            <mxRectangle width="60" height="30" as="alternateBounds" />
          </mxGeometry>
        </mxCell>
        <mxCell id="2562VTzGqT5PNNvAGIp--80" style="shape=tableRow;horizontal=0;startSize=0;swimlaneHead=0;swimlaneBody=0;fillColor=none;collapsible=0;dropTarget=0;points=[[0,0.5],[1,0.5]];portConstraint=eastwest;top=0;left=0;right=0;bottom=0;" vertex="1" parent="2562VTzGqT5PNNvAGIp--63">
          <mxGeometry y="150" width="240" height="30" as="geometry" />
        </mxCell>
        <mxCell id="2562VTzGqT5PNNvAGIp--81" style="shape=partialRectangle;connectable=0;fillColor=none;top=0;left=0;bottom=0;right=0;editable=1;overflow=hidden;whiteSpace=wrap;html=1;" vertex="1" parent="2562VTzGqT5PNNvAGIp--80">
          <mxGeometry width="30" height="30" as="geometry">
            <mxRectangle width="30" height="30" as="alternateBounds" />
          </mxGeometry>
        </mxCell>
        <mxCell id="2562VTzGqT5PNNvAGIp--82" value="service_count" style="shape=partialRectangle;connectable=0;fillColor=none;top=0;left=0;bottom=0;right=0;align=left;spacingLeft=6;overflow=hidden;whiteSpace=wrap;html=1;" vertex="1" parent="2562VTzGqT5PNNvAGIp--80">
          <mxGeometry x="30" width="150" height="30" as="geometry">
            <mxRectangle width="150" height="30" as="alternateBounds" />
          </mxGeometry>
        </mxCell>
        <mxCell id="2562VTzGqT5PNNvAGIp--83" value="int" style="shape=partialRectangle;connectable=0;fillColor=none;top=0;left=0;bottom=0;right=0;align=left;spacingLeft=6;overflow=hidden;whiteSpace=wrap;html=1;" vertex="1" parent="2562VTzGqT5PNNvAGIp--80">
          <mxGeometry x="180" width="60" height="30" as="geometry">
            <mxRectangle width="60" height="30" as="alternateBounds" />
          </mxGeometry>
        </mxCell>
        <mxCell id="2562VTzGqT5PNNvAGIp--84" value="" style="edgeStyle=orthogonalEdgeStyle;fontSize=12;html=1;endArrow=none;endFill=0;rounded=0;startArrow=classic;startFill=1;" edge="1" parent="_WV_hwa61__gZBfDJEvx-2" source="2562VTzGqT5PNNvAGIp--17" target="2562VTzGqT5PNNvAGIp--38">
          <mxGeometry width="100" height="100" relative="1" as="geometry">
            <mxPoint x="340" y="186" as="sourcePoint" />
            <mxPoint x="440" y="86" as="targetPoint" />
            <Array as="points">
              <mxPoint x="700" y="85" />
              <mxPoint x="700" y="297" />
            </Array>
          </mxGeometry>
        </mxCell>
        <mxCell id="2562VTzGqT5PNNvAGIp--85" value="" style="edgeStyle=orthogonalEdgeStyle;fontSize=12;html=1;endArrow=classic;endFill=1;rounded=0;startArrow=none;startFill=0;" edge="1" parent="_WV_hwa61__gZBfDJEvx-2" source="2562VTzGqT5PNNvAGIp--68" target="2562VTzGqT5PNNvAGIp--30">
          <mxGeometry width="100" height="100" relative="1" as="geometry">
            <mxPoint x="350" y="570" as="sourcePoint" />
            <mxPoint x="410" y="220" as="targetPoint" />
            <Array as="points">
              <mxPoint x="360" y="281" />
              <mxPoint x="360" y="241" />
            </Array>
          </mxGeometry>
        </mxCell>
        <mxCell id="2562VTzGqT5PNNvAGIp--86" value="" style="edgeStyle=orthogonalEdgeStyle;fontSize=12;html=1;endArrow=none;endFill=1;rounded=0;startArrow=classic;startFill=1;" edge="1" parent="_WV_hwa61__gZBfDJEvx-2" source="2562VTzGqT5PNNvAGIp--47" target="2562VTzGqT5PNNvAGIp--72">
          <mxGeometry width="100" height="100" relative="1" as="geometry">
            <mxPoint x="420" y="750" as="sourcePoint" />
            <mxPoint x="520" y="650" as="targetPoint" />
            <Array as="points">
              <mxPoint x="380" y="418" />
              <mxPoint x="380" y="311" />
            </Array>
          </mxGeometry>
        </mxCell>
      </root>
    </mxGraphModel>
  </diagram>
  <diagram id="L4DgSNniF3GLxF1Udzlu" name="ETL">
    <mxGraphModel dx="2066" dy="788" grid="1" gridSize="10" guides="1" tooltips="1" connect="1" arrows="1" fold="1" page="1" pageScale="1" pageWidth="1169" pageHeight="827" math="0" shadow="0">
      <root>
        <mxCell id="0" />
        <mxCell id="1" parent="0" />
        <mxCell id="lgwSdVJaT8OCi7PQpXdb-1" value="" style="group" vertex="1" connectable="0" parent="1">
          <mxGeometry x="75" y="194" width="1020" height="440" as="geometry" />
        </mxCell>
        <mxCell id="lgwSdVJaT8OCi7PQpXdb-2" value="Схема ETL-процесса" style="text;strokeColor=none;align=center;fillColor=none;html=1;verticalAlign=middle;whiteSpace=wrap;rounded=0;fontStyle=1;fontSize=23;" vertex="1" parent="lgwSdVJaT8OCi7PQpXdb-1">
          <mxGeometry x="385" width="250" height="30" as="geometry" />
        </mxCell>
        <mxCell id="lgwSdVJaT8OCi7PQpXdb-4" value="&lt;b&gt;&lt;font style=&quot;font-size: 14px;&quot;&gt;DWH&lt;/font&gt;&lt;/b&gt;" style="rounded=1;whiteSpace=wrap;html=1;verticalAlign=top;fillColor=default;strokeColor=#007FFF;strokeWidth=3;" vertex="1" parent="lgwSdVJaT8OCi7PQpXdb-1">
          <mxGeometry x="180" y="71" width="840" height="370" as="geometry" />
        </mxCell>
        <mxCell id="lgwSdVJaT8OCi7PQpXdb-5" value="&lt;b&gt;&lt;font style=&quot;font-size: 14px;&quot;&gt;Source Systems&lt;/font&gt;&lt;/b&gt;" style="rounded=1;whiteSpace=wrap;html=1;verticalAlign=top;fillColor=default;strokeColor=#B9E0A5;strokeWidth=3;" vertex="1" parent="lgwSdVJaT8OCi7PQpXdb-1">
          <mxGeometry y="70" width="130" height="370" as="geometry" />
        </mxCell>
        <mxCell id="lgwSdVJaT8OCi7PQpXdb-26" value="&lt;b&gt;Core Data Layer&lt;/b&gt;" style="rounded=1;whiteSpace=wrap;html=1;verticalAlign=top;fillColor=none;strokeColor=#007FFF;strokeWidth=2;" vertex="1" parent="lgwSdVJaT8OCi7PQpXdb-1">
          <mxGeometry x="517.5" y="100" width="195" height="330" as="geometry" />
        </mxCell>
        <mxCell id="lgwSdVJaT8OCi7PQpXdb-33" value="&lt;b&gt;Data Mart Layer&lt;/b&gt;" style="rounded=1;whiteSpace=wrap;html=1;verticalAlign=top;fillColor=none;strokeColor=#6666FF;strokeWidth=2;" vertex="1" parent="lgwSdVJaT8OCi7PQpXdb-1">
          <mxGeometry x="791.75" y="100" width="195" height="220" as="geometry" />
        </mxCell>
        <mxCell id="lgwSdVJaT8OCi7PQpXdb-38" value="&lt;b&gt;Primary Data Layer&lt;/b&gt;" style="rounded=1;whiteSpace=wrap;html=1;verticalAlign=top;fillColor=none;strokeColor=#B9E0A5;strokeWidth=2;" vertex="1" parent="lgwSdVJaT8OCi7PQpXdb-1">
          <mxGeometry x="230" y="100" width="195" height="330" as="geometry" />
        </mxCell>
        <mxCell id="lgwSdVJaT8OCi7PQpXdb-46" value="" style="group" vertex="1" connectable="0" parent="lgwSdVJaT8OCi7PQpXdb-1">
          <mxGeometry x="18.75" y="120" width="92.5" height="105" as="geometry" />
        </mxCell>
        <mxCell id="lgwSdVJaT8OCi7PQpXdb-6" value="&lt;b&gt;CRM&lt;/b&gt;" style="rounded=1;whiteSpace=wrap;html=1;fillColor=none;verticalAlign=top;strokeColor=#CCCCCC;strokeWidth=2;" vertex="1" parent="lgwSdVJaT8OCi7PQpXdb-46">
          <mxGeometry width="92.5" height="105" as="geometry" />
        </mxCell>
        <mxCell id="lgwSdVJaT8OCi7PQpXdb-8" value="Услуги" style="rounded=1;whiteSpace=wrap;html=1;fillColor=none;" vertex="1" parent="lgwSdVJaT8OCi7PQpXdb-46">
          <mxGeometry x="16.25" y="70" width="60" height="25" as="geometry" />
        </mxCell>
        <mxCell id="lgwSdVJaT8OCi7PQpXdb-10" value="Курсы" style="rounded=1;whiteSpace=wrap;html=1;fillColor=none;" vertex="1" parent="lgwSdVJaT8OCi7PQpXdb-46">
          <mxGeometry x="16.25" y="30" width="60" height="25" as="geometry" />
        </mxCell>
        <mxCell id="lgwSdVJaT8OCi7PQpXdb-47" value="" style="group" vertex="1" connectable="0" parent="lgwSdVJaT8OCi7PQpXdb-1">
          <mxGeometry x="18.75" y="249" width="92.5" height="70" as="geometry" />
        </mxCell>
        <mxCell id="lgwSdVJaT8OCi7PQpXdb-43" value="&lt;b&gt;Billing&lt;/b&gt;" style="rounded=1;whiteSpace=wrap;html=1;fillColor=none;verticalAlign=top;strokeColor=#CCCCCC;strokeWidth=2;" vertex="1" parent="lgwSdVJaT8OCi7PQpXdb-47">
          <mxGeometry width="92.5" height="70" as="geometry" />
        </mxCell>
        <mxCell id="lgwSdVJaT8OCi7PQpXdb-44" value="Оплаты" style="rounded=1;whiteSpace=wrap;html=1;fillColor=none;" vertex="1" parent="lgwSdVJaT8OCi7PQpXdb-47">
          <mxGeometry x="8.75" y="35" width="75" height="25" as="geometry" />
        </mxCell>
        <mxCell id="lgwSdVJaT8OCi7PQpXdb-48" value="" style="group" vertex="1" connectable="0" parent="lgwSdVJaT8OCi7PQpXdb-1">
          <mxGeometry x="10" y="360" width="110" height="70" as="geometry" />
        </mxCell>
        <mxCell id="lgwSdVJaT8OCi7PQpXdb-11" value="&lt;b&gt;Auth&lt;/b&gt;" style="rounded=1;whiteSpace=wrap;html=1;fillColor=none;verticalAlign=top;strokeColor=#CCCCCC;strokeWidth=2;" vertex="1" parent="lgwSdVJaT8OCi7PQpXdb-48">
          <mxGeometry x="2.142857142857146" width="105.71428571428571" height="70" as="geometry" />
        </mxCell>
        <mxCell id="lgwSdVJaT8OCi7PQpXdb-12" value="Пользователи" style="rounded=1;whiteSpace=wrap;html=1;fillColor=none;" vertex="1" parent="lgwSdVJaT8OCi7PQpXdb-48">
          <mxGeometry x="9.285714285714292" y="30" width="91.42857142857142" height="30" as="geometry" />
        </mxCell>
        <mxCell id="iG-W2CfGR9EDBYRH7RPq-2" value="Пользователи" style="rounded=1;whiteSpace=wrap;html=1;fillColor=none;" vertex="1" parent="lgwSdVJaT8OCi7PQpXdb-1">
          <mxGeometry x="260" y="380" width="105" height="30" as="geometry" />
        </mxCell>
        <mxCell id="iG-W2CfGR9EDBYRH7RPq-4" value="" style="endArrow=classic;html=1;rounded=0;edgeStyle=orthogonalEdgeStyle;" edge="1" parent="lgwSdVJaT8OCi7PQpXdb-1" source="lgwSdVJaT8OCi7PQpXdb-12" target="iG-W2CfGR9EDBYRH7RPq-2">
          <mxGeometry width="50" height="50" relative="1" as="geometry">
            <mxPoint x="165" y="520" as="sourcePoint" />
            <mxPoint x="215" y="470" as="targetPoint" />
            <Array as="points">
              <mxPoint x="205" y="405" />
              <mxPoint x="205" y="395" />
            </Array>
          </mxGeometry>
        </mxCell>
        <mxCell id="iG-W2CfGR9EDBYRH7RPq-22" style="edgeStyle=orthogonalEdgeStyle;rounded=0;orthogonalLoop=1;jettySize=auto;html=1;" edge="1" parent="lgwSdVJaT8OCi7PQpXdb-1" source="iG-W2CfGR9EDBYRH7RPq-5" target="iG-W2CfGR9EDBYRH7RPq-18">
          <mxGeometry relative="1" as="geometry">
            <Array as="points">
              <mxPoint x="535" y="315" />
              <mxPoint x="535" y="315" />
            </Array>
          </mxGeometry>
        </mxCell>
        <mxCell id="iG-W2CfGR9EDBYRH7RPq-5" value="Оплаты" style="rounded=1;whiteSpace=wrap;html=1;fillColor=none;" vertex="1" parent="lgwSdVJaT8OCi7PQpXdb-1">
          <mxGeometry x="275" y="302" width="75" height="25" as="geometry" />
        </mxCell>
        <mxCell id="iG-W2CfGR9EDBYRH7RPq-21" style="edgeStyle=orthogonalEdgeStyle;rounded=0;orthogonalLoop=1;jettySize=auto;html=1;" edge="1" parent="lgwSdVJaT8OCi7PQpXdb-1" source="iG-W2CfGR9EDBYRH7RPq-6" target="iG-W2CfGR9EDBYRH7RPq-13">
          <mxGeometry relative="1" as="geometry">
            <Array as="points">
              <mxPoint x="535" y="160" />
              <mxPoint x="535" y="195" />
            </Array>
          </mxGeometry>
        </mxCell>
        <mxCell id="iG-W2CfGR9EDBYRH7RPq-24" style="edgeStyle=orthogonalEdgeStyle;rounded=0;orthogonalLoop=1;jettySize=auto;html=1;" edge="1" parent="lgwSdVJaT8OCi7PQpXdb-1" source="iG-W2CfGR9EDBYRH7RPq-6" target="iG-W2CfGR9EDBYRH7RPq-12">
          <mxGeometry relative="1" as="geometry">
            <Array as="points">
              <mxPoint x="535" y="150" />
              <mxPoint x="535" y="150" />
            </Array>
          </mxGeometry>
        </mxCell>
        <mxCell id="iG-W2CfGR9EDBYRH7RPq-6" value="Курсы" style="rounded=1;whiteSpace=wrap;html=1;fillColor=none;" vertex="1" parent="lgwSdVJaT8OCi7PQpXdb-1">
          <mxGeometry x="282.5" y="140" width="60" height="25" as="geometry" />
        </mxCell>
        <mxCell id="iG-W2CfGR9EDBYRH7RPq-23" style="edgeStyle=orthogonalEdgeStyle;rounded=0;orthogonalLoop=1;jettySize=auto;html=1;" edge="1" parent="lgwSdVJaT8OCi7PQpXdb-1" source="iG-W2CfGR9EDBYRH7RPq-7" target="iG-W2CfGR9EDBYRH7RPq-17">
          <mxGeometry relative="1" as="geometry">
            <Array as="points">
              <mxPoint x="405" y="275" />
              <mxPoint x="405" y="275" />
            </Array>
          </mxGeometry>
        </mxCell>
        <mxCell id="iG-W2CfGR9EDBYRH7RPq-25" style="edgeStyle=orthogonalEdgeStyle;rounded=0;orthogonalLoop=1;jettySize=auto;html=1;" edge="1" parent="lgwSdVJaT8OCi7PQpXdb-1" source="iG-W2CfGR9EDBYRH7RPq-7" target="iG-W2CfGR9EDBYRH7RPq-16">
          <mxGeometry relative="1" as="geometry">
            <Array as="points">
              <mxPoint x="456" y="260" />
              <mxPoint x="456" y="240" />
            </Array>
          </mxGeometry>
        </mxCell>
        <mxCell id="iG-W2CfGR9EDBYRH7RPq-7" value="Услуги" style="rounded=1;whiteSpace=wrap;html=1;fillColor=none;" vertex="1" parent="lgwSdVJaT8OCi7PQpXdb-1">
          <mxGeometry x="282.5" y="221" width="60" height="25" as="geometry" />
        </mxCell>
        <mxCell id="iG-W2CfGR9EDBYRH7RPq-8" value="" style="endArrow=classic;html=1;rounded=0;edgeStyle=orthogonalEdgeStyle;" edge="1" parent="lgwSdVJaT8OCi7PQpXdb-1" source="lgwSdVJaT8OCi7PQpXdb-44" target="iG-W2CfGR9EDBYRH7RPq-5">
          <mxGeometry width="50" height="50" relative="1" as="geometry">
            <mxPoint x="165" y="330" as="sourcePoint" />
            <mxPoint x="215" y="280" as="targetPoint" />
          </mxGeometry>
        </mxCell>
        <mxCell id="iG-W2CfGR9EDBYRH7RPq-9" value="" style="endArrow=classic;html=1;rounded=0;edgeStyle=orthogonalEdgeStyle;" edge="1" parent="lgwSdVJaT8OCi7PQpXdb-1" source="lgwSdVJaT8OCi7PQpXdb-10" target="iG-W2CfGR9EDBYRH7RPq-6">
          <mxGeometry width="50" height="50" relative="1" as="geometry">
            <mxPoint x="135" y="270" as="sourcePoint" />
            <mxPoint x="185" y="220" as="targetPoint" />
            <Array as="points">
              <mxPoint x="255" y="160" />
              <mxPoint x="255" y="160" />
            </Array>
          </mxGeometry>
        </mxCell>
        <mxCell id="iG-W2CfGR9EDBYRH7RPq-10" style="edgeStyle=orthogonalEdgeStyle;rounded=0;orthogonalLoop=1;jettySize=auto;html=1;" edge="1" parent="lgwSdVJaT8OCi7PQpXdb-1" source="lgwSdVJaT8OCi7PQpXdb-8" target="iG-W2CfGR9EDBYRH7RPq-7">
          <mxGeometry relative="1" as="geometry">
            <Array as="points">
              <mxPoint x="255" y="200" />
              <mxPoint x="255" y="230" />
            </Array>
          </mxGeometry>
        </mxCell>
        <mxCell id="iG-W2CfGR9EDBYRH7RPq-32" style="edgeStyle=orthogonalEdgeStyle;rounded=0;orthogonalLoop=1;jettySize=auto;html=1;" edge="1" parent="lgwSdVJaT8OCi7PQpXdb-1" source="iG-W2CfGR9EDBYRH7RPq-12" target="iG-W2CfGR9EDBYRH7RPq-29">
          <mxGeometry relative="1" as="geometry">
            <Array as="points">
              <mxPoint x="755" y="153" />
              <mxPoint x="755" y="153" />
            </Array>
          </mxGeometry>
        </mxCell>
        <mxCell id="iG-W2CfGR9EDBYRH7RPq-12" value="Course_field" style="rounded=1;whiteSpace=wrap;html=1;fillColor=none;" vertex="1" parent="lgwSdVJaT8OCi7PQpXdb-1">
          <mxGeometry x="570" y="140" width="90" height="25" as="geometry" />
        </mxCell>
        <mxCell id="iG-W2CfGR9EDBYRH7RPq-31" style="edgeStyle=orthogonalEdgeStyle;rounded=0;orthogonalLoop=1;jettySize=auto;html=1;" edge="1" parent="lgwSdVJaT8OCi7PQpXdb-1" source="iG-W2CfGR9EDBYRH7RPq-13" target="iG-W2CfGR9EDBYRH7RPq-28">
          <mxGeometry relative="1" as="geometry">
            <Array as="points">
              <mxPoint x="795" y="195" />
              <mxPoint x="795" y="195" />
            </Array>
          </mxGeometry>
        </mxCell>
        <mxCell id="iG-W2CfGR9EDBYRH7RPq-13" value="Course" style="rounded=1;whiteSpace=wrap;html=1;fillColor=none;" vertex="1" parent="lgwSdVJaT8OCi7PQpXdb-1">
          <mxGeometry x="570" y="182" width="90" height="25" as="geometry" />
        </mxCell>
        <mxCell id="iG-W2CfGR9EDBYRH7RPq-16" value="Service_course" style="rounded=1;whiteSpace=wrap;html=1;fillColor=none;" vertex="1" parent="lgwSdVJaT8OCi7PQpXdb-1">
          <mxGeometry x="570" y="223" width="90" height="25" as="geometry" />
        </mxCell>
        <mxCell id="iG-W2CfGR9EDBYRH7RPq-17" value="Service" style="rounded=1;whiteSpace=wrap;html=1;fillColor=none;" vertex="1" parent="lgwSdVJaT8OCi7PQpXdb-1">
          <mxGeometry x="570" y="265" width="90" height="25" as="geometry" />
        </mxCell>
        <mxCell id="iG-W2CfGR9EDBYRH7RPq-30" style="edgeStyle=orthogonalEdgeStyle;rounded=0;orthogonalLoop=1;jettySize=auto;html=1;" edge="1" parent="lgwSdVJaT8OCi7PQpXdb-1" source="iG-W2CfGR9EDBYRH7RPq-18" target="iG-W2CfGR9EDBYRH7RPq-26">
          <mxGeometry relative="1" as="geometry">
            <Array as="points">
              <mxPoint x="755" y="317" />
              <mxPoint x="755" y="250" />
            </Array>
          </mxGeometry>
        </mxCell>
        <mxCell id="iG-W2CfGR9EDBYRH7RPq-18" value="Payment" style="rounded=1;whiteSpace=wrap;html=1;fillColor=none;" vertex="1" parent="lgwSdVJaT8OCi7PQpXdb-1">
          <mxGeometry x="570" y="307" width="90" height="25" as="geometry" />
        </mxCell>
        <mxCell id="iG-W2CfGR9EDBYRH7RPq-14" value="Tutor" style="rounded=1;whiteSpace=wrap;html=1;fillColor=none;" vertex="1" parent="lgwSdVJaT8OCi7PQpXdb-1">
          <mxGeometry x="570" y="348" width="90" height="25" as="geometry" />
        </mxCell>
        <mxCell id="iG-W2CfGR9EDBYRH7RPq-15" value="Students" style="rounded=1;whiteSpace=wrap;html=1;fillColor=none;" vertex="1" parent="lgwSdVJaT8OCi7PQpXdb-1">
          <mxGeometry x="570" y="390" width="90" height="25" as="geometry" />
        </mxCell>
        <mxCell id="iG-W2CfGR9EDBYRH7RPq-19" style="edgeStyle=orthogonalEdgeStyle;rounded=0;orthogonalLoop=1;jettySize=auto;html=1;" edge="1" parent="lgwSdVJaT8OCi7PQpXdb-1" source="iG-W2CfGR9EDBYRH7RPq-2" target="iG-W2CfGR9EDBYRH7RPq-14">
          <mxGeometry relative="1" as="geometry">
            <Array as="points">
              <mxPoint x="545" y="390" />
              <mxPoint x="545" y="353" />
            </Array>
          </mxGeometry>
        </mxCell>
        <mxCell id="iG-W2CfGR9EDBYRH7RPq-20" style="edgeStyle=orthogonalEdgeStyle;rounded=0;orthogonalLoop=1;jettySize=auto;html=1;" edge="1" parent="lgwSdVJaT8OCi7PQpXdb-1" source="iG-W2CfGR9EDBYRH7RPq-2" target="iG-W2CfGR9EDBYRH7RPq-15">
          <mxGeometry relative="1" as="geometry">
            <Array as="points">
              <mxPoint x="555" y="403" />
              <mxPoint x="555" y="403" />
            </Array>
          </mxGeometry>
        </mxCell>
        <mxCell id="iG-W2CfGR9EDBYRH7RPq-26" value="Sales_fact" style="rounded=1;whiteSpace=wrap;html=1;fillColor=none;" vertex="1" parent="lgwSdVJaT8OCi7PQpXdb-1">
          <mxGeometry x="823" y="233" width="132.5" height="25" as="geometry" />
        </mxCell>
        <mxCell id="iG-W2CfGR9EDBYRH7RPq-27" value="Month_dim" style="rounded=1;whiteSpace=wrap;html=1;fillColor=none;" vertex="1" parent="lgwSdVJaT8OCi7PQpXdb-1">
          <mxGeometry x="823" y="279" width="132.5" height="25" as="geometry" />
        </mxCell>
        <mxCell id="iG-W2CfGR9EDBYRH7RPq-28" value="Course_dim" style="rounded=1;whiteSpace=wrap;html=1;fillColor=none;" vertex="1" parent="lgwSdVJaT8OCi7PQpXdb-1">
          <mxGeometry x="823" y="186" width="132.5" height="25" as="geometry" />
        </mxCell>
        <mxCell id="iG-W2CfGR9EDBYRH7RPq-29" value="Course_field_dim" style="rounded=1;whiteSpace=wrap;html=1;fillColor=none;" vertex="1" parent="lgwSdVJaT8OCi7PQpXdb-1">
          <mxGeometry x="823" y="140" width="132.5" height="25" as="geometry" />
        </mxCell>
      </root>
    </mxGraphModel>
  </diagram>
</mxfile>
